<?xml version="1.0" standalone="no"?>
<!DOCTYPE svg PUBLIC "-//W3C//DTD SVG 20010904//EN"
 "http://www.w3.org/TR/2001/REC-SVG-20010904/DTD/svg10.dtd">
<svg version="1.0" xmlns="http://www.w3.org/2000/svg"
 width="951.000000pt" height="951.000000pt" viewBox="0 0 951.000000 951.000000"
 preserveAspectRatio="xMidYMid meet">
<metadata>
Created by potrace 1.11, written by Peter Selinger 2001-2013
</metadata>
<g transform="translate(0.000000,951.000000) scale(0.100000,-0.100000)"
fill="#000000" stroke="none">
<path d="M3721 9347 c-6 -16 -20 -26 -41 -31 -30 -6 -32 -8 -26 -37 5 -28 4
-30 -10 -18 -21 18 -36 -6 -23 -39 10 -27 5 -42 -16 -42 -23 0 -27 -18 -9 -45
13 -20 14 -28 4 -40 -7 -8 -9 -22 -6 -31 8 -20 -4 -95 -14 -89 -4 2 -12 -6
-18 -19 -8 -18 -6 -25 9 -34 16 -10 17 -16 7 -38 -10 -22 -10 -28 3 -38 22
-15 32 -59 34 -136 1 -68 11 -110 25 -110 9 0 8 -26 -2 -35 -8 -9 2 -45 13
-45 5 0 9 -9 9 -20 0 -11 -4 -20 -9 -20 -20 0 -21 -34 -1 -55 16 -17 19 -28
12 -41 -5 -11 -16 -34 -25 -51 -15 -31 -15 -33 6 -48 12 -8 27 -15 34 -15 7 0
10 -7 7 -15 -4 -8 -12 -15 -19 -15 -7 0 -18 -7 -25 -15 -11 -13 -9 -20 13 -43
22 -23 24 -30 14 -47 -7 -12 -12 -74 -13 -160 -1 -133 0 -142 22 -172 13 -17
30 -37 37 -45 8 -7 14 -27 13 -43 -1 -17 4 -37 11 -45 6 -8 12 -18 12 -23 2
-28 34 -78 60 -93 55 -32 29 -73 -46 -74 -51 0 -59 -10 -33 -43 27 -34 25 -39
-12 -36 -51 3 -68 0 -68 -12 0 -7 8 -18 18 -26 10 -9 13 -16 6 -19 -20 -9 -3
-54 22 -59 13 -3 35 -7 49 -10 24 -5 36 -35 15 -35 -16 0 -12 -30 5 -36 23 -9
38 -43 27 -57 -11 -14 2 -57 18 -57 17 0 11 -28 -12 -49 -17 -17 -19 -23 -8
-36 7 -8 15 -13 19 -11 4 3 13 1 21 -4 12 -7 13 -15 3 -39 -7 -20 -8 -31 -1
-33 11 -4 11 -20 5 -116 -2 -29 0 -55 4 -58 5 -2 4 -15 -1 -29 -6 -17 -5 -27
6 -35 17 -15 18 -52 2 -68 -14 -14 -68 -16 -68 -2 0 6 -7 10 -15 10 -8 0 -15
8 -15 18 0 10 -12 25 -26 32 -19 11 -24 20 -21 37 2 13 0 23 -4 23 -5 0 -9 5
-9 10 0 11 -10 24 -42 61 -10 10 -18 24 -18 29 0 6 -4 10 -10 10 -5 0 -10 7
-10 15 0 8 6 15 13 15 15 0 15 27 2 93 -5 24 -4 37 3 37 7 0 9 19 7 50 -4 46
-3 50 18 50 22 1 22 1 2 16 -11 8 -19 20 -17 25 1 5 -5 9 -13 9 -10 0 -14 10
-13 33 1 19 -2 39 -6 45 -3 5 -2 22 4 36 7 19 6 25 -2 23 -10 -2 -26 24 -58
93 -4 8 -13 15 -21 15 -9 0 -16 17 -20 51 -4 28 -11 60 -18 72 -15 28 -14 48
3 64 21 21 24 51 7 64 -8 7 -15 24 -16 39 0 19 -6 29 -17 31 -10 1 -31 12 -48
24 -16 12 -30 19 -30 15 0 -3 -6 0 -14 7 -8 7 -12 20 -11 29 2 9 -3 29 -11 44
-8 15 -13 43 -10 61 2 20 -2 38 -10 45 -8 6 -11 15 -9 20 3 4 0 11 -7 16 -27
17 -68 83 -68 109 0 15 -6 43 -12 62 -12 31 -11 35 12 52 23 17 24 21 14 59
-6 22 -7 44 -3 48 10 10 0 53 -13 53 -21 0 -40 31 -34 55 4 14 3 25 -1 25 -5
0 -14 4 -22 9 -11 7 -10 14 5 39 18 31 18 31 -9 58 -35 35 -34 66 3 95 35 28
38 44 9 60 l-21 11 21 22 c26 27 26 41 4 58 -10 7 -26 23 -37 35 -18 22 -18
23 3 40 28 23 33 53 13 76 -13 15 -14 22 -4 37 18 29 15 37 -23 76 -22 21 -34
42 -31 52 2 9 7 27 11 40 5 16 2 24 -12 28 -10 3 -34 13 -53 23 -39 20 -80 13
-80 -14 0 -11 -10 -15 -35 -15 -20 0 -52 -10 -73 -23 -20 -12 -46 -28 -57 -34
-24 -13 -21 -40 6 -64 10 -9 19 -20 19 -23 0 -11 -27 -36 -38 -36 -5 0 -12 -9
-15 -20 -3 -14 -14 -20 -31 -20 -36 0 -42 -23 -17 -63 25 -41 26 -47 7 -47
-22 0 -30 -38 -12 -64 11 -17 12 -26 4 -34 -16 -16 6 -54 43 -76 37 -22 37
-32 -1 -51 -35 -18 -35 -18 -13 -56 15 -26 16 -31 3 -39 -12 -7 -12 -12 0 -34
7 -14 20 -26 29 -26 24 -1 64 -69 58 -100 -5 -21 3 -34 39 -70 49 -48 51 -52
29 -70 -13 -11 -13 -14 0 -27 8 -8 18 -26 21 -41 4 -15 13 -35 22 -44 8 -10
16 -28 18 -40 5 -34 9 -50 21 -78 12 -27 47 -140 48 -153 0 -4 6 -11 13 -16 7
-4 12 -13 10 -18 -2 -6 7 -20 20 -31 13 -12 25 -27 26 -34 2 -7 7 -24 13 -38
6 -14 8 -41 6 -61 -4 -28 0 -40 15 -51 11 -7 22 -22 24 -33 1 -11 9 -26 16
-34 8 -8 12 -28 10 -48 -2 -18 -1 -33 4 -33 4 0 12 -10 19 -21 8 -17 8 -23 -2
-30 -10 -6 -10 -11 -1 -22 7 -8 17 -42 23 -75 6 -33 19 -69 30 -81 10 -11 19
-27 19 -35 0 -8 4 -16 9 -18 6 -1 12 -28 14 -58 2 -30 9 -68 15 -83 9 -22 9
-33 0 -50 -16 -30 -21 -84 -8 -92 5 -3 10 -24 10 -46 0 -26 5 -42 15 -45 8 -4
15 -17 15 -30 0 -13 6 -24 13 -25 19 0 64 -62 49 -67 -19 -6 -14 -37 8 -57 11
-10 20 -26 20 -35 0 -10 7 -23 15 -30 19 -16 21 -90 2 -90 -19 0 -42 -51 -27
-60 12 -8 3 -40 -12 -40 -5 0 -6 -4 -3 -10 3 -5 0 -11 -7 -11 -7 -1 -25 -3
-40 -5 -21 -2 -28 2 -28 14 0 9 -16 28 -36 42 -20 13 -41 37 -46 52 -6 18 -25
34 -54 48 -24 12 -45 27 -45 33 -1 7 -3 21 -6 32 -2 11 -6 39 -9 62 -3 23 -15
51 -26 63 -11 11 -18 27 -15 34 3 7 -4 18 -14 24 -12 8 -19 24 -19 43 0 29
-37 79 -60 79 -5 0 -10 9 -10 20 0 11 -4 20 -10 20 -5 0 -10 17 -10 38 0 43
-14 62 -47 62 -19 0 -22 5 -19 28 1 15 8 38 15 50 13 25 7 42 -14 42 -23 0
-28 20 -11 39 17 19 12 50 -8 52 -6 1 -23 0 -37 -1 -43 -2 -108 66 -96 101 4
12 -26 39 -44 39 -12 0 -16 5 -12 16 3 8 -4 25 -16 38 -13 13 -23 38 -23 55
-1 18 -5 34 -9 37 -5 3 -6 18 -3 34 5 24 3 29 -17 32 -19 2 -23 9 -21 27 3 33
-15 51 -53 51 l-32 0 7 41 c7 37 5 42 -16 51 -25 12 -31 24 -13 30 17 6 -2 38
-33 54 -16 8 -28 20 -26 27 1 7 -4 22 -11 35 -7 13 -11 38 -10 55 1 18 -3 45
-10 61 -6 16 -9 31 -6 34 3 3 -7 18 -22 34 -24 25 -26 31 -15 49 11 18 11 23
-4 34 -10 7 -26 10 -36 7 -13 -3 -18 1 -18 16 0 12 5 24 10 27 7 4 5 14 -4 26
-7 11 -12 28 -10 37 3 9 -7 30 -21 46 -18 21 -22 33 -15 41 7 9 6 16 -5 25
-17 14 -20 60 -4 60 8 0 8 5 -1 15 -7 8 -18 15 -25 15 -17 0 -65 64 -65 88 0
10 -11 28 -25 40 -14 13 -23 27 -20 33 9 14 -14 39 -36 39 -15 0 -17 6 -12 37
l6 36 -42 -6 c-34 -4 -47 -1 -70 19 -19 15 -41 24 -64 24 -36 0 -36 0 -25 31
8 25 8 33 -3 40 -20 13 -27 11 -46 -11 -17 -20 -17 -20 -39 0 -20 20 -54 19
-54 -1 0 -5 -10 -5 -22 0 -33 12 -48 3 -48 -26 0 -23 -3 -25 -30 -20 -36 8
-46 -4 -19 -23 22 -17 24 -33 5 -49 -16 -13 -15 -38 2 -69 12 -20 11 -25 -10
-41 -22 -19 -22 -20 -5 -39 16 -17 16 -23 6 -40 -11 -18 -10 -24 3 -39 12 -12
15 -29 12 -55 -5 -32 -2 -38 22 -51 26 -13 27 -18 26 -81 -1 -55 2 -68 16 -72
54 -18 70 -28 85 -53 9 -16 17 -40 17 -53 0 -30 21 -50 74 -72 26 -11 36 -20
33 -31 -7 -18 18 -45 42 -45 9 0 23 -10 31 -21 8 -12 30 -42 48 -66 17 -24 32
-47 32 -52 0 -5 14 -23 30 -41 17 -18 30 -36 30 -41 0 -5 12 -12 28 -15 15 -4
57 -38 94 -75 63 -65 66 -71 63 -109 -3 -28 1 -45 13 -57 9 -9 17 -30 17 -47
0 -22 6 -31 21 -35 29 -8 74 -46 74 -63 0 -19 20 -38 42 -38 16 0 23 -11 19
-33 -1 -5 7 -20 17 -35 29 -42 51 -107 45 -131 -3 -12 1 -28 8 -37 8 -9 13
-26 11 -38 -3 -27 9 -45 34 -48 31 -5 67 -35 61 -51 -3 -8 1 -27 9 -42 8 -15
14 -36 14 -46 0 -11 16 -29 38 -43 52 -34 71 -60 70 -97 -1 -22 6 -38 22 -51
12 -10 19 -18 16 -18 -4 0 3 -18 14 -40 15 -29 19 -52 16 -81 -3 -27 0 -49 10
-64 22 -34 15 -79 -14 -83 -14 -2 -25 3 -29 14 -10 27 -55 63 -78 64 -13 0
-30 15 -45 40 -14 22 -30 40 -37 40 -6 0 -17 15 -24 33 -12 33 -75 75 -82 54
-6 -18 -27 3 -27 27 0 29 -23 50 -48 42 -22 -7 -46 17 -56 56 -4 19 -14 28
-36 33 -25 5 -30 11 -30 36 0 16 -6 29 -12 30 -7 1 -24 2 -37 2 -17 2 -30 15
-49 52 -14 28 -33 57 -42 65 -8 8 -21 27 -28 43 -9 21 -18 27 -42 27 -27 0
-35 8 -31 32 0 4 -11 15 -25 25 -14 10 -33 25 -43 33 -9 8 -29 21 -44 27 -19
9 -27 20 -27 37 0 16 -7 27 -19 31 -12 3 -21 17 -23 33 -2 15 -12 31 -25 38
-23 11 -77 64 -66 64 3 0 0 7 -7 15 -7 8 -20 15 -30 15 -22 0 -32 24 -17 40 9
9 6 17 -15 34 -18 14 -28 31 -28 49 0 23 -5 29 -30 33 -16 4 -28 10 -25 14 6
10 -20 20 -51 20 -14 0 -34 9 -46 20 -12 11 -30 20 -40 20 -10 0 -19 6 -20 13
0 6 -2 17 -3 22 -2 6 -3 16 -4 23 -1 9 -11 12 -28 10 -26 -3 -28 -1 -25 30 2
28 -1 32 -22 32 -26 0 -39 -20 -30 -45 4 -10 0 -15 -15 -15 -12 0 -21 6 -21
14 0 8 -14 24 -30 36 -16 12 -30 28 -30 36 0 26 -39 15 -55 -16 l-16 -31 -26
21 c-50 39 -70 23 -48 -39 13 -39 13 -41 -6 -41 -28 0 -35 -28 -15 -64 12 -22
15 -44 11 -71 -6 -39 -4 -41 49 -85 30 -24 57 -52 59 -62 3 -10 14 -18 25 -18
28 0 31 -8 23 -55 -13 -75 30 -117 118 -113 39 2 55 -2 73 -19 13 -12 41 -24
63 -27 22 -3 41 -5 42 -6 1 0 29 -27 62 -60 33 -33 67 -60 75 -60 8 0 21 -6
28 -13 27 -26 68 -47 91 -47 21 0 36 -13 65 -55 4 -6 22 -21 40 -34 21 -15 32
-31 32 -47 0 -13 9 -29 20 -36 11 -7 20 -18 20 -25 0 -7 9 -17 21 -24 35 -18
114 -103 128 -137 7 -17 22 -34 32 -37 11 -4 27 -17 35 -31 9 -13 22 -24 28
-24 7 0 19 -11 26 -25 12 -23 27 -30 56 -26 7 1 32 -19 55 -45 24 -25 63 -64
86 -87 23 -22 40 -44 38 -47 -2 -4 8 -13 23 -21 15 -7 38 -22 51 -31 14 -10
32 -16 43 -13 14 5 18 1 18 -20 0 -15 7 -28 18 -32 34 -13 57 -39 59 -68 2
-28 8 -36 47 -60 21 -13 30 -75 11 -75 -7 0 -15 -6 -18 -12 -3 -10 -8 -9 -22
2 -10 8 -26 14 -37 12 -10 -2 -21 4 -25 15 -7 22 -91 103 -106 103 -6 0 -18 6
-26 13 -9 8 -32 20 -51 27 -19 7 -44 21 -55 30 -11 9 -32 22 -47 30 -16 7 -28
16 -28 20 0 12 -41 55 -53 56 -7 1 -18 2 -24 3 -7 0 -13 7 -13 14 0 6 -14 27
-30 45 -21 22 -39 32 -60 32 -16 0 -38 8 -49 19 -14 14 -29 17 -60 14 -33 -3
-41 -1 -41 12 0 9 -19 24 -45 36 -25 11 -45 24 -45 29 0 5 -19 14 -42 21 -24
6 -60 18 -81 25 -29 11 -41 11 -57 2 -15 -10 -22 -9 -38 6 -11 9 -39 19 -63
21 -47 4 -73 28 -66 57 7 27 -20 45 -45 29 -17 -11 -23 -9 -40 9 -11 12 -27
19 -35 16 -8 -3 -17 -6 -19 -6 -2 0 -4 -7 -4 -15 0 -21 -9 -19 -31 9 -11 14
-29 26 -42 28 -15 2 -22 10 -23 25 -1 13 -7 29 -14 37 -10 14 -15 13 -36 0
-22 -15 -24 -15 -30 0 -9 22 -38 28 -69 14 -24 -11 -29 -10 -41 6 -10 15 -21
17 -49 12 -33 -7 -36 -5 -41 23 -9 43 -26 54 -58 40 -21 -10 -29 -9 -44 4 -14
13 -30 15 -68 11 -46 -6 -53 -4 -79 21 -24 25 -28 26 -37 12 -12 -23 -35 -21
-50 3 -15 24 -50 26 -72 5 -18 -19 -55 -19 -70 -1 -8 10 -18 12 -34 5 -23 -9
-30 -33 -12 -44 21 -13 9 -27 -18 -22 -37 8 -60 -6 -44 -26 7 -8 26 -20 42
-27 16 -6 31 -19 34 -27 5 -13 1 -14 -24 -10 -23 5 -32 2 -40 -13 -8 -15 -5
-22 17 -38 25 -18 26 -21 10 -37 -22 -21 -13 -35 22 -35 22 0 31 -7 40 -29 10
-24 56 -57 70 -51 2 1 7 -4 11 -11 5 -7 0 -20 -13 -31 l-22 -19 32 6 c28 6 33
4 33 -14 0 -23 28 -34 64 -25 26 6 38 -1 83 -49 15 -15 28 -25 31 -22 3 2 13
0 23 -5 10 -6 41 -13 70 -15 28 -3 55 -7 59 -10 3 -2 14 5 23 15 14 17 25 19
74 14 87 -9 92 -10 99 -17 4 -4 15 -7 25 -7 9 0 19 -7 23 -15 3 -8 17 -15 31
-15 15 0 24 4 21 8 -2 4 -1 14 4 22 7 12 14 12 27 4 10 -6 19 -16 19 -23 1 -6
2 -15 3 -21 0 -5 10 -10 21 -10 15 0 20 7 20 29 0 26 4 30 33 33 17 2 49 -3
70 -10 21 -7 43 -10 48 -6 6 3 26 -2 46 -11 20 -10 55 -18 79 -19 26 -1 49 -8
56 -17 14 -17 59 -37 96 -42 13 -2 37 -16 54 -32 17 -16 40 -30 52 -30 59 -4
88 -26 91 -70 0 -5 13 -12 29 -13 16 -2 54 -19 83 -38 29 -18 53 -30 53 -26 0
4 8 -3 18 -16 10 -13 33 -29 52 -36 68 -24 100 -49 100 -77 0 -32 25 -55 54
-51 12 2 33 -6 46 -18 13 -11 34 -23 47 -26 19 -5 22 -11 16 -33 -3 -14 -9
-27 -13 -29 -5 -2 -6 -12 -3 -22 3 -11 0 -20 -6 -20 -6 0 -11 -6 -11 -12 0
-19 -87 -21 -94 -2 -3 8 -19 14 -37 14 -18 0 -40 7 -49 15 -20 18 -49 10 -58
-16 -6 -16 -11 -16 -47 -3 -22 7 -41 18 -43 24 -6 18 -40 11 -57 -12 l-16 -23
-19 23 c-10 12 -25 22 -33 22 -9 0 -23 7 -31 16 -15 14 -16 14 -16 0 0 -23
-22 -20 -62 8 -28 18 -39 21 -54 13 -28 -16 -94 -20 -110 -7 -8 8 -32 10 -63
6 -37 -4 -52 -2 -62 10 -11 13 -15 13 -24 2 -5 -7 -15 -14 -20 -14 -6 -1 -21
-5 -34 -9 -18 -5 -22 -4 -16 5 6 10 -4 12 -48 6 -32 -3 -57 -3 -57 2 0 4 -9
13 -19 19 -16 10 -24 9 -43 -7 -16 -12 -29 -15 -38 -10 -8 5 -31 7 -51 5 -20
-2 -49 3 -65 11 -22 12 -34 13 -52 5 -14 -7 -30 -8 -40 -2 -17 9 -167 23 -231
21 -18 0 -52 9 -76 20 -47 23 -85 28 -131 16 -35 -8 -70 15 -60 40 6 14 -7 18
-55 14 -14 0 -31 6 -39 14 -18 23 -80 21 -80 -2 0 -38 -46 -56 -70 -27 -19 22
-39 18 -46 -10 -8 -31 -21 -32 -50 -4 l-23 22 -22 -37 c-20 -34 -27 -38 -73
-40 -24 -2 -34 -26 -11 -26 13 0 15 -6 10 -31 -5 -24 -2 -36 15 -54 16 -17 21
-31 16 -48 -7 -28 6 -42 47 -52 15 -4 32 -16 38 -27 6 -11 13 -17 16 -14 4 3
12 1 20 -5 10 -9 17 -8 28 1 13 10 19 10 33 -4 10 -9 24 -16 30 -16 6 0 16 -9
22 -21 8 -15 18 -19 34 -15 15 4 25 -1 34 -14 12 -20 42 -27 55 -13 4 3 2 12
-5 20 -16 20 1 33 35 26 25 -5 27 -9 22 -34 -6 -26 -4 -29 18 -29 14 0 32 7
41 15 16 16 56 21 56 6 0 -18 40 -19 53 -1 14 20 48 21 55 2 8 -24 31 -12 29
16 -2 24 1 27 33 28 51 2 61 6 85 33 14 15 31 23 48 22 37 -3 52 -2 134 5 55
5 76 3 93 -9 15 -11 38 -13 86 -9 40 3 64 1 64 -5 0 -15 42 -24 56 -12 7 6 11
16 8 24 -7 17 8 26 26 14 8 -5 11 -9 7 -9 -4 0 1 -10 12 -21 17 -19 30 -22 88
-20 50 1 75 7 95 21 38 28 73 31 73 6 0 -22 43 -42 59 -26 15 15 46 12 46 -5
0 -8 8 -15 19 -15 10 0 24 7 31 15 19 23 49 18 59 -9 11 -26 30 -36 71 -36 15
0 47 -7 71 -16 24 -9 83 -17 132 -20 48 -2 96 -8 107 -14 11 -6 20 -9 20 -6 0
2 21 -2 46 -10 71 -21 136 -94 84 -94 -11 0 -25 -9 -32 -20 -15 -24 -68 -28
-68 -5 0 9 -11 20 -24 25 -13 5 -27 14 -31 19 -9 16 -35 13 -35 -4 0 -13 -13
-20 -23 -12 -2 1 -12 -5 -22 -13 -15 -13 -19 -12 -35 8 -10 12 -23 22 -28 22
-14 0 -36 -29 -37 -51 -2 -29 -8 -31 -82 -33 -73 -2 -96 -11 -106 -38 -4 -13
-18 -18 -44 -20 -53 -2 -56 -2 -73 -13 -60 -38 -86 -45 -138 -39 -29 4 -58 2
-65 -3 -15 -12 -47 -13 -47 -1 0 4 -7 8 -15 8 -12 0 -14 -8 -9 -39 l6 -38 -63
1 c-55 1 -67 -2 -87 -22 -22 -22 -25 -23 -48 -7 -26 17 -41 13 -62 -17 -8 -11
-19 -17 -25 -15 -20 7 -47 -13 -47 -34 0 -17 -4 -20 -28 -14 -22 4 -33 0 -52
-20 -13 -14 -34 -25 -47 -25 -13 0 -23 -4 -23 -10 0 -5 -3 -9 -7 -8 -5 1 -21
-5 -38 -14 -54 -28 -80 -30 -109 -7 -15 12 -30 19 -33 15 -3 -3 -12 -1 -19 5
-9 7 -26 5 -61 -7 -47 -17 -50 -16 -77 2 -16 10 -38 20 -50 21 -12 2 -26 11
-33 19 -18 25 -47 10 -39 -20 6 -25 -17 -45 -29 -26 -13 20 -55 10 -67 -15
-13 -28 -55 -35 -64 -10 -6 16 -41 20 -60 7 -6 -4 -14 -16 -18 -28 -7 -22 -66
-47 -101 -42 -21 3 -97 -17 -128 -33 -12 -6 -25 -4 -42 7 -17 11 -29 13 -41 6
-15 -9 -15 -12 9 -32 14 -12 23 -29 20 -36 -6 -15 -63 -20 -63 -5 0 13 -27 21
-45 14 -14 -5 -14 -7 0 -23 22 -24 9 -48 -28 -52 -26 -2 -31 -7 -29 -23 2 -11
15 -31 28 -46 28 -29 30 -39 9 -39 -22 0 -18 -18 6 -25 11 -4 18 -13 15 -20
-3 -8 8 -18 27 -26 18 -7 44 -21 59 -31 14 -10 34 -18 43 -18 9 0 23 -7 31
-15 21 -21 61 -19 68 3 8 24 24 26 121 18 33 -2 66 -5 73 -5 6 -1 12 -8 12
-16 0 -8 9 -19 20 -25 24 -13 28 -53 5 -43 -9 3 -15 2 -13 -3 1 -5 -1 -24 -5
-42 -6 -28 -10 -32 -27 -27 -16 5 -29 -1 -51 -24 -32 -34 -60 -40 -128 -27
-49 9 -65 -3 -56 -41 4 -17 -1 -23 -25 -28 -35 -8 -38 -26 -10 -63 11 -14 17
-28 12 -31 -23 -16 -20 -41 6 -55 15 -8 36 -23 46 -35 11 -12 25 -21 33 -21 7
0 13 -5 13 -11 0 -6 6 -9 14 -6 9 4 19 -8 28 -32 13 -33 21 -39 54 -44 21 -4
50 -10 63 -13 22 -6 23 -5 16 25 -7 35 -12 33 83 31 49 -1 69 3 83 16 13 12
38 18 70 20 32 1 59 8 71 19 17 14 24 15 44 5 32 -18 57 -6 49 21 -6 18 -4 21
9 16 9 -4 16 -2 16 2 0 12 49 6 62 -7 16 -16 49 -2 46 21 -2 11 4 23 12 27 31
16 98 32 108 26 6 -4 8 2 5 14 -5 17 0 20 26 20 17 0 31 -4 31 -9 0 -10 40
-19 58 -13 7 2 12 17 12 32 0 27 3 29 39 28 22 0 45 3 52 8 20 12 60 14 80 3
10 -5 20 -5 23 0 5 8 70 28 111 33 11 2 22 5 25 9 3 3 23 13 45 23 22 11 43
23 46 29 4 5 21 10 38 11 19 1 31 6 31 15 0 11 12 12 54 7 31 -3 57 -2 61 3 3
5 19 9 35 9 17 -1 39 7 50 17 12 11 29 16 44 13 18 -4 33 3 53 22 15 14 53 34
83 43 30 10 75 31 99 47 32 20 52 27 71 23 23 -4 29 -1 38 25 11 32 40 43 102
37 19 -2 53 5 76 15 23 11 63 21 90 23 40 4 50 8 52 25 4 24 47 32 110 19 30
-6 42 -13 42 -25 0 -25 -35 -78 -64 -97 -21 -14 -24 -20 -15 -43 13 -34 6 -48
-28 -57 -15 -3 -34 -12 -42 -18 -7 -6 -26 -10 -41 -9 -22 3 -32 -3 -46 -27
-12 -20 -26 -31 -41 -31 -16 0 -31 -12 -48 -40 -20 -32 -31 -40 -56 -40 -32 0
-59 -19 -59 -43 0 -9 -15 -17 -40 -21 -25 -4 -43 -14 -50 -26 -9 -16 -21 -20
-67 -20 -72 0 -121 -17 -125 -44 -2 -16 -13 -22 -42 -27 -22 -4 -45 -14 -51
-23 -13 -18 -45 -22 -45 -6 0 14 -26 12 -42 -3 -7 -8 -30 -19 -50 -26 -23 -8
-40 -21 -44 -34 -7 -26 -63 -87 -79 -87 -6 0 -21 -9 -34 -21 -15 -14 -31 -20
-51 -17 -25 4 -29 1 -32 -21 -3 -23 -9 -27 -57 -33 -29 -3 -57 -10 -62 -15 -5
-5 -48 -7 -95 -6 -48 1 -95 -2 -104 -7 -12 -6 -23 -5 -36 5 -22 17 -56 19 -70
5 -8 -8 -19 -8 -38 0 -37 14 -39 13 -70 -15 -25 -23 -31 -25 -60 -14 -27 10
-36 8 -66 -10 -20 -12 -52 -21 -75 -21 -43 -1 -81 -22 -70 -39 4 -7 -9 -11
-37 -11 -24 0 -52 -7 -62 -15 -11 -8 -33 -15 -48 -15 -16 0 -31 -7 -34 -15 -4
-8 -14 -15 -23 -15 -22 0 -76 -37 -77 -52 -1 -16 -90 -108 -104 -108 -6 0 -8
-10 -4 -24 4 -19 0 -27 -25 -42 -32 -19 -42 -53 -16 -55 35 -3 40 -6 37 -19
-2 -8 -12 -20 -23 -28 -31 -21 -25 -76 11 -109 16 -14 30 -31 30 -37 0 -22 37
-44 64 -39 22 5 26 2 26 -18 0 -13 4 -30 9 -38 7 -11 10 -9 16 8 6 20 35 30
35 12 0 -5 9 -13 20 -16 34 -11 24 -35 -14 -35 -30 0 -36 -4 -46 -35 -6 -19
-9 -43 -6 -53 4 -12 -1 -25 -14 -37 -27 -24 -25 -39 6 -64 14 -11 23 -25 19
-31 -3 -5 6 -26 21 -45 l27 -36 -19 -35 c-17 -30 -17 -36 -4 -44 8 -5 26 -8
40 -7 32 5 60 -20 39 -34 -8 -5 -18 -9 -22 -9 -5 0 -7 -10 -5 -22 2 -18 9 -22
29 -20 18 2 29 -4 38 -22 8 -13 22 -27 32 -29 11 -3 24 -19 30 -35 10 -29 11
-30 83 -28 54 1 78 6 90 19 24 24 105 20 91 -4 -3 -4 6 -16 20 -25 20 -13 28
-14 40 -4 8 7 13 16 10 20 -9 14 6 38 26 43 18 5 19 9 9 28 -12 22 -3 37 28
40 6 1 17 3 22 4 6 1 17 3 25 4 21 1 19 18 -5 38 -25 22 -25 40 0 48 11 3 20
11 20 16 0 6 15 9 35 6 41 -6 55 8 52 48 -2 24 2 30 19 31 37 2 46 14 40 50
-7 36 5 49 54 55 15 3 33 17 45 37 12 18 35 42 53 52 19 12 32 28 32 40 0 21
1 22 69 24 32 1 47 6 55 20 18 32 83 96 98 96 7 0 26 9 42 19 17 11 34 17 38
15 5 -3 31 6 58 20 28 15 50 23 50 20 0 -3 11 1 24 10 14 8 43 18 65 22 22 4
46 13 52 20 6 8 27 14 47 14 19 0 40 7 46 15 6 8 24 16 41 19 16 3 37 15 46
27 14 19 18 20 37 8 18 -11 25 -11 40 -1 9 7 32 19 50 27 17 9 32 19 32 23 0
5 26 5 58 1 67 -9 84 -8 105 10 11 8 22 9 34 3 13 -7 23 -5 36 8 18 17 17 19
-10 44 -27 26 -27 27 -9 41 11 8 26 15 33 15 7 0 13 4 13 9 0 5 21 19 47 32
61 30 81 51 85 90 3 36 28 53 28 21 0 -23 36 -40 51 -25 13 13 0 43 -17 43
-29 0 -2 43 34 54 12 4 22 15 22 26 0 22 16 35 25 20 11 -18 53 -11 69 11 13
19 19 20 45 11 34 -12 54 0 66 38 7 23 13 24 49 10 23 -8 26 -7 32 18 10 49
13 52 42 52 15 0 33 5 40 12 9 9 15 9 24 0 7 -7 20 -12 30 -12 12 0 18 -7 18
-21 0 -13 -5 -19 -13 -16 -9 3 -11 -6 -9 -32 5 -50 -33 -113 -65 -107 -13 2
-23 -1 -23 -5 0 -5 -6 -9 -13 -9 -7 0 -23 -11 -35 -25 -12 -14 -31 -25 -42
-25 -38 0 -59 -21 -53 -55 5 -33 -7 -50 -42 -56 -11 -2 -27 -19 -35 -36 -8
-18 -24 -35 -35 -38 -42 -13 -64 -28 -69 -51 -4 -13 -10 -23 -14 -23 -33 5
-60 -3 -65 -21 -5 -20 -11 -24 -59 -34 -15 -3 -30 -15 -33 -26 -4 -12 -15 -20
-29 -20 -29 0 -52 -26 -48 -53 7 -41 -7 -66 -42 -73 -22 -4 -43 -17 -58 -37
-29 -38 -35 -43 -76 -68 -21 -12 -32 -25 -29 -34 8 -18 -18 -39 -41 -33 -25 7
-43 -9 -64 -54 -12 -26 -22 -36 -33 -32 -9 4 -15 1 -15 -8 0 -8 -22 -22 -50
-32 -28 -10 -50 -23 -50 -30 0 -6 -14 -20 -30 -31 -17 -11 -36 -32 -43 -48 -6
-15 -20 -27 -30 -27 -39 0 -57 -19 -57 -61 0 -25 -5 -42 -14 -45 -8 -3 -12
-12 -9 -20 3 -8 -5 -18 -19 -24 -13 -6 -29 -23 -36 -38 -12 -26 -75 -63 -116
-67 -11 -2 -30 -14 -42 -28 -12 -14 -41 -31 -64 -37 -25 -7 -44 -18 -47 -29
-3 -12 -27 -22 -84 -35 -67 -15 -82 -22 -89 -42 -6 -15 -18 -24 -31 -24 -13 0
-30 -7 -40 -16 -16 -14 -16 -17 -1 -45 11 -19 13 -32 7 -37 -12 -9 -15 -52 -3
-52 17 0 7 -40 -14 -55 -20 -13 -24 -13 -34 -1 -5 8 -23 16 -39 18 -24 2 -32
-2 -43 -24 -7 -16 -21 -28 -32 -28 -32 0 -50 -27 -46 -71 3 -35 -1 -44 -29
-72 -37 -37 -50 -83 -27 -92 12 -4 13 -8 4 -17 -7 -7 -12 -22 -12 -35 0 -47
139 -97 170 -60 6 6 17 21 24 31 12 18 17 18 44 7 45 -19 82 -7 82 25 0 22 3
25 24 20 26 -6 63 25 51 44 -4 7 8 26 28 45 19 18 32 36 29 40 -4 4 -2 5 3 4
6 -2 19 2 31 8 12 7 45 11 75 10 48 -2 54 0 54 18 0 11 6 19 13 17 6 -1 12 5
12 13 0 9 9 15 23 15 32 0 37 8 27 36 -8 20 -4 32 27 72 19 26 42 47 49 47 21
0 34 18 37 53 1 18 4 31 7 30 9 -4 50 36 50 49 0 7 5 13 10 13 6 0 9 3 9 8 -5
29 3 42 26 42 19 0 31 9 43 31 9 17 28 44 40 60 13 16 26 44 29 61 3 18 11 40
19 49 8 8 14 21 14 27 0 18 41 36 85 36 36 1 40 4 45 31 5 26 10 30 34 28 46
-3 69 14 64 48 -5 32 7 47 41 52 15 2 29 17 41 44 17 38 33 48 92 57 4 1 19
14 34 29 14 15 39 30 55 34 16 3 29 9 29 14 0 12 38 49 50 49 15 0 28 32 24
60 -3 18 3 30 17 40 12 8 34 25 49 38 15 12 33 22 40 22 6 0 9 4 6 9 -3 5 10
11 29 14 19 3 44 15 57 26 37 35 78 24 136 -36 23 -25 27 -39 14 -47 -4 -2 -9
-22 -10 -42 -3 -46 -2 -44 -43 -51 -18 -3 -45 -15 -60 -27 -14 -12 -41 -28
-58 -36 -27 -11 -31 -17 -29 -44 1 -18 -1 -37 -5 -43 -4 -6 -2 -13 4 -15 5 -2
-1 -17 -15 -33 -14 -17 -26 -38 -26 -47 0 -11 -5 -15 -14 -12 -20 8 -59 -34
-62 -65 -1 -14 -2 -29 -3 -32 -2 -13 -38 -46 -71 -65 -31 -18 -35 -24 -32 -56
3 -27 -2 -42 -17 -57 -12 -12 -21 -25 -21 -30 0 -5 -7 -12 -16 -15 -8 -3 -12
-11 -8 -17 5 -9 -3 -10 -30 -6 -20 3 -34 2 -31 -3 6 -9 -72 -70 -91 -70 -15 0
-25 -39 -15 -59 18 -31 -29 -86 -82 -96 -11 -3 -23 -8 -26 -12 -8 -10 -37 -28
-81 -49 -42 -21 -91 -64 -85 -75 10 -15 -47 -48 -100 -59 -39 -8 -56 -17 -60
-31 -4 -10 -14 -19 -24 -19 -9 0 -22 -5 -28 -11 -6 -6 -25 -12 -42 -14 -41 -3
-151 -62 -151 -81 0 -9 7 -22 15 -31 25 -24 13 -47 -32 -63 -24 -8 -44 -19
-47 -26 -2 -6 4 -42 14 -80 18 -69 18 -69 -3 -77 -53 -20 -84 -55 -91 -102 -7
-47 -26 -65 -65 -65 -14 0 -21 -6 -21 -20 0 -13 7 -20 19 -20 35 0 34 -49 -1
-50 -5 0 -8 -9 -8 -20 0 -27 48 -69 79 -70 13 0 38 -9 56 -20 25 -15 38 -18
61 -10 88 27 102 28 107 9 8 -29 35 -34 60 -12 19 17 45 27 112 39 6 1 18 2
28 3 9 0 17 7 17 15 0 21 30 48 46 42 7 -3 17 0 21 7 5 7 19 18 33 25 76 37
95 52 92 75 -2 18 11 36 53 75 31 28 56 53 55 57 -4 11 22 65 31 65 5 0 9 9 9
19 0 11 7 27 16 36 16 15 15 39 0 77 -5 11 2 26 23 46 22 20 31 39 31 61 0 17
-5 31 -10 31 -15 0 -1 83 16 96 8 6 14 16 14 22 0 6 13 18 29 27 34 17 45 42
35 82 -4 15 -3 25 1 21 13 -12 68 22 117 74 38 40 46 56 42 74 -5 19 -1 26 21
34 14 5 36 10 48 10 15 0 28 11 41 35 10 19 23 32 27 29 13 -8 49 34 43 51 -4
8 1 17 9 21 9 3 18 25 22 55 4 31 14 54 26 62 10 8 16 17 13 20 -10 10 25 57
41 57 22 0 43 49 27 59 -16 10 1 61 21 61 19 0 97 83 97 104 0 9 -5 26 -10 37
-19 35 28 64 80 49 27 -8 34 -5 65 26 19 19 39 34 45 34 7 0 10 15 8 37 -4 36
1 42 71 110 64 63 79 73 110 73 49 0 126 49 136 87 3 15 10 30 14 33 14 9 61
89 61 104 0 9 -9 20 -20 26 -28 15 -25 37 5 44 15 4 25 13 25 25 0 11 12 23
30 31 33 14 40 45 14 64 -19 15 -10 40 23 62 24 15 27 15 35 0 5 -9 22 -16 38
-16 17 0 30 -4 30 -9 0 -5 9 -11 21 -14 11 -3 19 -11 18 -19 -3 -19 12 -68 21
-68 4 0 11 -11 14 -25 4 -14 13 -25 21 -25 27 0 16 -37 -19 -63 -25 -20 -32
-32 -29 -50 4 -18 -5 -33 -36 -62 -29 -28 -41 -47 -41 -67 0 -21 -6 -29 -25
-34 -15 -4 -22 -11 -18 -18 18 -28 12 -54 -23 -90 -25 -26 -41 -35 -55 -31
-27 9 -59 -3 -53 -20 3 -8 -3 -26 -15 -41 -12 -15 -20 -39 -19 -58 1 -17 -3
-40 -9 -51 -5 -11 -8 -30 -8 -42 1 -13 -4 -28 -11 -34 -8 -6 -14 -20 -14 -31
0 -10 -7 -21 -15 -24 -8 -4 -15 -12 -15 -20 0 -7 -9 -18 -20 -24 -11 -6 -20
-20 -20 -31 0 -12 -11 -30 -25 -41 -14 -11 -25 -30 -25 -44 0 -21 -9 -28 -31
-26 -8 1 -26 -37 -33 -70 -4 -16 -12 -28 -20 -28 -7 0 -21 -18 -31 -40 -10
-22 -25 -42 -34 -45 -10 -3 -22 -20 -29 -38 -14 -36 -56 -87 -72 -87 -6 0 -15
-12 -20 -26 -6 -14 -19 -28 -30 -31 -21 -6 -35 -36 -25 -53 3 -5 1 -10 -4 -10
-6 0 -11 -5 -11 -11 0 -6 -6 -17 -12 -24 -7 -8 -23 -26 -36 -42 -12 -15 -36
-44 -52 -64 -17 -20 -30 -42 -30 -47 0 -10 -38 -36 -50 -35 -11 1 -39 -24 -42
-37 -4 -19 -24 -40 -37 -40 -6 0 -11 -7 -11 -15 0 -8 -4 -15 -10 -15 -5 0 -7
-6 -4 -14 3 -9 -3 -17 -15 -21 -12 -3 -21 -11 -21 -16 0 -5 -25 -20 -55 -34
-41 -18 -58 -32 -66 -52 -6 -18 -24 -35 -48 -47 -25 -12 -38 -23 -34 -32 3 -8
1 -14 -5 -14 -6 0 -8 -8 -6 -17 3 -12 -7 -26 -31 -42 -19 -13 -38 -34 -41 -46
-3 -13 -17 -33 -30 -46 -28 -26 -30 -44 -8 -66 14 -14 12 -19 -21 -51 -21 -20
-34 -41 -30 -49 3 -9 -9 -27 -30 -46 -19 -17 -35 -38 -35 -47 0 -17 -31 -55
-50 -62 -6 -2 -12 -11 -14 -20 -1 -10 -21 -35 -45 -57 -53 -49 -53 -76 1 -76
46 -1 56 -10 35 -33 -10 -10 -14 -22 -10 -25 3 -4 1 -7 -5 -7 -7 0 -12 -11
-12 -24 0 -13 -7 -29 -15 -36 -8 -7 -15 -19 -15 -27 0 -21 29 -27 49 -9 24 22
41 20 41 -3 0 -32 16 -33 56 -6 32 22 44 24 86 19 47 -6 48 -6 59 25 11 32 23
39 34 21 10 -17 44 -11 57 10 7 11 24 20 38 20 14 0 35 3 47 6 19 5 21 10 12
25 -8 16 -4 22 25 35 34 17 40 44 10 44 -26 0 -14 29 19 46 34 18 49 33 41 45
-2 4 4 10 15 14 10 3 29 15 42 26 22 19 22 21 6 48 -22 38 -22 46 7 59 23 10
24 14 14 49 -7 27 -7 38 1 41 14 5 14 52 0 52 -22 0 -4 44 20 50 24 5 42 30
22 30 -9 0 -6 44 5 62 3 4 15 8 27 8 34 0 47 13 42 43 -5 23 0 29 30 41 24 10
35 22 35 35 0 11 9 25 20 31 11 6 20 17 20 24 0 8 7 16 14 19 8 3 23 21 32 39
9 18 23 37 30 41 8 4 14 14 14 22 0 7 8 16 18 20 11 3 50 34 87 69 54 50 67
68 62 85 -3 12 1 27 9 35 8 8 14 22 14 31 0 9 9 19 20 22 11 3 18 9 15 13 -6
9 21 22 54 26 42 5 54 13 48 34 -3 11 -2 20 1 21 66 7 80 27 58 80 -8 18 26
57 67 78 15 8 27 18 27 23 0 4 8 8 18 8 11 0 22 12 30 32 6 17 15 29 19 25 3
-4 15 1 26 10 10 10 22 17 26 17 3 -1 12 1 19 4 22 8 27 -7 27 -81 -1 -104 -6
-129 -31 -157 -14 -16 -24 -45 -29 -82 -7 -59 -28 -88 -64 -88 -9 0 -25 -12
-38 -26 -17 -21 -20 -31 -12 -51 12 -32 12 -33 -5 -33 -23 0 -29 -33 -9 -48
34 -25 26 -92 -12 -92 -16 0 -30 -11 -44 -34 -11 -18 -32 -41 -45 -51 -19 -14
-23 -25 -19 -45 4 -21 -1 -32 -21 -47 -17 -14 -26 -32 -28 -54 -1 -19 -8 -40
-15 -47 -7 -7 -17 -31 -24 -54 -6 -23 -22 -50 -35 -60 -13 -11 -24 -25 -24
-32 0 -7 -9 -24 -20 -38 -15 -19 -16 -28 -7 -37 9 -10 8 -15 -4 -24 -9 -7 -19
-23 -23 -37 -12 -40 -68 -150 -77 -150 -5 0 -21 -13 -36 -30 -14 -16 -32 -30
-38 -30 -17 0 -42 -31 -50 -62 -4 -14 -15 -34 -25 -43 -10 -9 -16 -23 -13 -30
2 -8 -6 -33 -20 -56 -20 -32 -23 -47 -17 -70 6 -19 5 -29 -2 -29 -6 0 -20 -7
-30 -17 -17 -15 -17 -17 -1 -36 17 -18 17 -20 -4 -37 -23 -18 -32 -68 -37
-190 -1 -25 -6 -54 -11 -64 -6 -15 -3 -24 16 -39 22 -18 22 -20 6 -32 -35 -25
-18 -33 63 -31 70 2 80 0 75 -13 -14 -35 -8 -51 19 -51 26 0 41 31 24 48 -17
17 -1 30 57 46 30 9 57 20 60 25 3 6 21 7 41 4 30 -5 36 -3 41 15 3 11 11 23
19 26 8 3 14 18 14 33 0 18 8 33 21 41 21 13 22 32 4 75 -5 12 -3 17 8 17 9 0
28 11 43 23 26 23 27 25 11 48 -22 30 -21 45 3 78 13 19 20 49 23 94 2 36 9
73 17 82 11 13 11 20 0 40 -12 22 -11 31 8 69 12 24 19 51 16 60 -3 9 -1 16 5
16 6 0 11 17 11 39 0 22 6 44 15 51 8 6 14 15 13 18 0 4 1 9 2 12 1 3 3 13 5
22 7 36 51 114 77 137 16 13 28 32 28 42 0 10 6 22 14 26 16 10 42 59 47 90 3
13 -6 32 -20 47 -18 19 -20 26 -9 26 20 0 58 42 58 65 0 10 8 27 17 37 9 10
18 35 20 56 1 20 7 38 11 40 23 7 43 29 45 49 1 13 13 27 35 37 25 12 32 21
27 35 -3 12 6 30 30 55 26 28 34 44 29 59 -5 15 -3 19 9 14 19 -7 58 38 51 58
-3 7 2 22 10 32 9 10 29 33 45 51 20 23 27 39 23 57 -3 18 0 25 12 25 9 0 16
5 16 10 0 6 13 10 30 10 19 0 33 7 40 19 15 29 51 37 63 15 6 -11 10 -19 8
-19 -1 0 6 -23 17 -51 19 -47 25 -127 11 -149 -4 -5 -10 -44 -14 -85 -4 -41
-11 -78 -17 -81 -5 -3 -10 -12 -11 -20 -2 -8 -7 -20 -11 -28 -6 -9 -5 -12 1
-8 5 4 9 -22 8 -66 -1 -40 3 -84 8 -98 8 -21 6 -30 -12 -48 -12 -12 -19 -26
-16 -31 3 -4 0 -10 -5 -12 -6 -2 -11 -25 -12 -51 0 -26 -4 -47 -8 -47 -5 0 -7
-12 -5 -27 1 -15 -4 -48 -11 -74 -8 -26 -12 -64 -10 -84 3 -20 -2 -51 -9 -69
-8 -18 -12 -42 -9 -53 3 -11 -1 -34 -10 -51 -8 -16 -13 -32 -10 -34 2 -3 -9
-20 -26 -38 -16 -18 -30 -36 -30 -40 0 -5 -15 -18 -34 -30 -24 -14 -34 -27
-31 -40 2 -13 -6 -27 -26 -40 -16 -12 -29 -26 -29 -31 0 -13 -20 -33 -42 -42
-24 -9 -8 -51 21 -55 26 -4 27 -14 1 -37 -15 -14 -19 -26 -15 -46 4 -17 1 -37
-8 -51 -8 -13 -13 -32 -11 -42 1 -11 -6 -26 -17 -34 -23 -16 -25 -45 -3 -63
11 -9 14 -22 9 -46 -3 -20 -2 -33 4 -33 6 0 15 -9 20 -19 8 -14 5 -30 -14 -66
-27 -49 -25 -65 4 -65 10 0 28 -13 41 -30 14 -19 32 -30 47 -30 16 0 29 -10
41 -30 21 -36 30 -37 63 -6 27 25 60 28 98 7 16 -9 26 -10 33 -3 16 16 2 42
-22 42 -27 0 -25 26 4 45 16 11 22 22 19 35 -4 13 6 25 34 42 21 14 46 27 55
31 10 4 16 14 13 26 -3 16 3 22 31 27 19 3 35 11 35 18 6 52 8 85 8 107 1 15
7 32 15 38 9 7 12 23 10 41 -3 17 2 39 11 53 14 22 14 25 0 37 -16 13 -14 30
11 85 19 43 20 56 5 98 -7 21 -10 45 -7 53 3 9 -1 25 -9 37 -20 29 -19 32 10
45 23 11 33 40 19 55 -3 3 -8 29 -10 59 -2 29 -6 71 -8 93 -2 22 1 51 7 65 14
34 16 64 5 71 -4 3 -1 19 7 37 11 22 14 46 10 81 -4 36 -1 57 9 74 9 12 16 38
17 57 2 19 5 40 8 45 3 6 6 33 7 62 2 28 7 61 13 72 7 11 9 32 7 46 -3 14 -1
25 4 25 14 0 23 81 11 93 -16 16 -13 57 5 64 11 4 13 13 9 33 -3 14 -1 38 4
53 8 20 7 30 -3 40 -22 21 -14 60 18 88 l29 27 -29 27 c-26 24 -27 27 -11 36
12 7 17 21 15 45 -1 20 3 38 9 42 7 4 13 19 15 32 2 14 7 30 11 36 7 12 5 48
-9 223 -6 84 -5 95 11 107 12 9 18 27 19 61 0 26 6 48 11 48 6 1 23 4 38 8 22
6 27 12 22 25 -4 9 -9 31 -11 48 -4 26 0 33 18 38 40 10 47 7 74 -36 15 -24
31 -45 35 -48 10 -7 1 -80 -12 -96 -7 -9 -7 -19 0 -33 6 -11 11 -27 11 -35 0
-8 14 -29 30 -46 17 -17 31 -36 31 -43 1 -7 3 -25 5 -42 2 -16 -2 -35 -8 -42
-7 -9 -6 -20 6 -38 22 -33 20 -44 -9 -55 -25 -10 -29 -20 -25 -73 1 -18 -5
-34 -16 -42 -17 -12 -17 -13 0 -30 12 -12 15 -26 11 -46 -4 -16 -3 -29 2 -29
4 0 14 -9 20 -19 10 -16 8 -27 -12 -65 -29 -54 -28 -46 -11 -93 7 -21 10 -49
6 -63 -5 -19 2 -51 14 -66 1 0 -5 -8 -13 -18 -8 -9 -16 -40 -18 -69 -6 -79 -5
-91 7 -95 14 -5 13 -79 -2 -84 -6 -2 -9 -11 -6 -19 3 -8 6 -18 6 -23 0 -5 5
-12 12 -16 7 -4 8 -15 1 -31 -6 -16 -5 -31 1 -43 5 -9 7 -24 4 -32 -3 -8 1
-17 9 -20 9 -4 14 -18 13 -37 0 -18 2 -42 6 -55 5 -13 3 -29 -3 -36 -6 -8 -13
-35 -15 -61 -2 -26 -7 -50 -12 -54 -5 -3 -11 -26 -12 -51 -2 -25 -10 -52 -18
-61 -8 -8 -14 -20 -14 -25 0 -5 -10 -15 -21 -22 -18 -11 -20 -20 -15 -51 5
-31 0 -46 -24 -84 -16 -26 -27 -47 -23 -47 4 0 2 -5 -5 -12 -7 -7 -12 -25 -12
-40 0 -28 -13 -58 -39 -90 -7 -10 -11 -26 -8 -37 3 -13 -4 -28 -20 -43 -14
-13 -22 -30 -20 -40 3 -10 1 -21 -4 -24 -6 -4 -6 -11 1 -19 14 -17 22 -213 10
-236 -7 -12 -4 -22 11 -34 12 -12 19 -30 18 -49 -2 -51 33 -129 65 -144 19
-10 26 -19 21 -30 -13 -33 -9 -37 33 -40 23 -2 42 -7 42 -13 0 -5 10 -9 21 -9
17 0 20 5 17 25 -6 30 15 39 85 36 44 -1 47 0 47 24 0 14 3 24 8 24 31 -5 52
3 52 20 0 12 11 25 28 33 24 12 27 19 27 65 0 54 19 82 55 83 17 0 26 60 10
60 -6 0 -10 20 -10 44 0 35 6 50 30 76 22 23 28 38 24 55 -4 15 0 24 10 28 23
9 20 54 -3 62 -16 5 -18 14 -16 53 2 26 4 52 5 57 5 25 -2 47 -20 65 -15 15
-16 21 -6 27 22 14 27 43 8 50 -9 4 -27 16 -40 29 -18 18 -21 26 -13 47 5 14
14 28 19 31 14 9 9 32 -13 56 -16 18 -17 22 -3 38 9 9 14 26 11 37 -2 11 -6
38 -8 59 -2 21 -9 42 -15 46 -13 8 -4 50 12 61 17 11 20 69 5 93 -12 17 -13
33 -6 70 5 26 7 61 5 78 -2 17 3 43 10 56 7 14 11 30 8 34 -3 5 -8 53 -10 106
-2 53 -7 117 -10 142 -4 25 -7 88 -8 140 0 52 -4 100 -9 107 -4 6 -5 17 -1 25
8 19 75 60 90 54 8 -3 11 0 7 10 -4 10 2 17 17 21 15 4 18 8 9 13 -7 5 -12 31
-13 64 -1 35 -5 56 -12 56 -16 0 -24 24 -24 71 0 25 5 39 13 39 19 0 84 -63
92 -90 4 -14 11 -30 16 -36 5 -6 7 -27 5 -48 -1 -21 2 -43 8 -50 6 -6 13 -22
14 -36 2 -14 16 -63 32 -110 15 -47 26 -100 25 -118 -2 -20 2 -35 12 -41 11
-6 14 -21 12 -55 -2 -25 0 -47 5 -49 5 -2 10 -24 11 -49 2 -25 11 -61 20 -80
10 -18 22 -41 27 -51 5 -10 6 -33 2 -50 -10 -41 -9 -105 1 -137 4 -14 9 -42
11 -64 2 -21 10 -49 19 -62 9 -14 13 -29 10 -35 -4 -5 -7 -69 -7 -142 0 -120
-2 -133 -20 -145 -11 -8 -36 -47 -55 -88 -34 -71 -35 -75 -19 -99 15 -22 15
-31 4 -60 -6 -19 -18 -35 -25 -35 -10 0 -10 -5 -1 -26 7 -15 8 -28 2 -32 -11
-9 -12 -14 -20 -102 -4 -42 -3 -70 3 -70 5 0 10 -18 12 -41 2 -45 17 -74 70
-134 51 -58 98 -87 150 -91 25 -2 47 -8 49 -14 2 -6 11 -17 20 -26 14 -14 16
-14 26 3 12 20 20 21 50 8 22 -9 48 18 40 40 -4 11 6 13 43 11 26 -2 51 2 55
7 4 6 19 11 35 12 23 0 28 4 28 25 0 33 12 50 36 50 30 0 35 28 10 54 -15 16
-19 26 -11 31 6 4 8 15 5 25 -3 10 -2 21 3 24 4 2 9 24 11 48 2 24 4 52 5 63
1 11 -7 43 -17 70 -11 28 -20 69 -21 92 -1 23 -7 48 -14 55 -6 6 -12 23 -12
36 0 13 -9 35 -20 49 -11 14 -20 31 -20 39 0 7 -5 14 -11 16 -9 3 -17 61 -19
135 0 12 -5 25 -10 28 -6 3 -10 15 -10 26 0 10 -6 18 -12 17 -9 -2 -12 11 -10
46 1 27 -2 54 -8 61 -5 6 -11 20 -13 31 -1 10 -5 24 -9 29 -3 6 -5 38 -4 73 1
49 5 66 19 73 17 10 24 49 9 49 -11 0 -43 56 -35 63 3 4 -5 11 -18 17 -21 9
-24 18 -23 53 1 23 5 56 9 73 5 22 2 34 -9 43 -9 8 -16 21 -16 30 0 10 -7 26
-15 37 -17 23 -20 64 -4 64 9 0 10 23 6 78 -4 55 -3 82 6 91 9 9 9 14 -1 20
-7 4 -14 16 -16 27 -6 28 -35 106 -44 118 -5 6 -10 31 -11 56 -2 30 -10 51
-24 65 -26 23 -33 90 -12 99 8 3 11 13 8 26 -4 13 0 25 8 30 10 7 7 11 -14 19
-35 13 -34 32 2 59 33 24 71 25 71 2 0 -9 14 -24 30 -33 17 -10 30 -27 30 -37
0 -23 30 -61 42 -54 4 3 8 -2 8 -10 0 -8 9 -23 19 -33 11 -10 23 -31 27 -48 8
-36 40 -74 72 -86 13 -5 21 -13 17 -18 -3 -5 -1 -12 5 -16 6 -3 9 -18 8 -33
-1 -15 11 -54 27 -87 16 -33 28 -72 26 -88 -1 -17 3 -29 13 -33 9 -3 16 -14
16 -23 0 -10 16 -26 35 -37 38 -20 43 -29 20 -38 -23 -8 -18 -34 10 -52 14 -9
25 -24 25 -34 0 -10 7 -25 15 -34 8 -8 20 -38 25 -66 5 -28 14 -59 20 -70 5
-10 10 -32 10 -49 0 -21 5 -31 15 -31 8 0 15 -4 15 -10 0 -5 7 -10 15 -10 15
0 16 -4 19 -45 0 -11 5 -26 9 -32 5 -7 5 -13 0 -13 -4 0 -1 -5 7 -10 8 -5 15
-13 16 -17 0 -4 8 -32 17 -61 17 -55 15 -138 -5 -179 -8 -16 -8 -26 0 -36 7
-8 9 -17 5 -20 -3 -4 -2 -7 3 -7 5 0 11 -12 12 -27 1 -15 9 -38 18 -51 9 -13
17 -49 18 -80 2 -37 8 -59 19 -67 10 -7 14 -20 11 -32 -6 -20 13 -59 48 -97 9
-10 16 -32 16 -48 -1 -30 18 -52 35 -41 5 3 6 -9 4 -27 -6 -37 12 -49 48 -30
20 11 27 10 50 -8 15 -12 35 -19 50 -16 16 3 28 -2 38 -16 7 -11 17 -17 20
-13 4 3 8 0 8 -8 1 -8 2 -21 3 -29 2 -24 43 -25 51 -1 3 12 3 25 0 31 -4 6 6
10 24 10 16 0 36 7 45 15 14 15 46 11 46 -6 0 -5 9 -9 20 -9 23 0 26 18 6 46
-13 17 -12 22 11 46 21 22 24 31 16 55 -9 24 -5 33 26 72 30 36 36 53 38 95 2
49 0 53 -48 102 -28 28 -49 57 -47 64 2 7 -8 19 -21 26 -25 13 -31 26 -34 81
-2 19 -12 40 -27 53 -20 18 -22 23 -10 30 8 6 18 10 21 10 3 0 5 10 4 22 -1
15 -12 25 -39 34 -20 7 -43 20 -51 28 -8 7 -34 23 -57 35 -49 23 -76 57 -59
74 6 6 11 17 11 24 0 16 -56 73 -70 73 -19 0 -10 29 10 35 20 6 28 44 10 46
-5 1 -14 3 -20 4 -5 1 -16 3 -24 4 -8 0 -18 10 -21 21 -4 12 -15 20 -29 20
-30 0 -49 23 -49 60 0 16 -4 27 -9 24 -13 -9 -37 27 -38 55 0 41 -32 101 -57
107 -13 4 -24 10 -24 15 -3 20 -7 50 -8 63 0 8 -9 22 -18 32 -21 20 -18 63 5
80 14 10 14 17 3 51 -7 21 -11 45 -10 53 5 22 -23 60 -43 60 -10 0 -25 11 -34
25 -9 14 -23 25 -30 25 -8 0 -14 7 -14 15 0 8 -7 15 -15 15 -18 0 -19 12 -4
27 8 8 1 23 -28 55 -21 23 -44 56 -51 71 -14 33 -7 76 16 95 17 13 26 46 10
36 -7 -4 -8 5 -3 27 4 19 9 36 10 37 9 10 67 -13 83 -32 10 -13 32 -31 50 -40
17 -9 39 -30 48 -47 9 -17 31 -46 49 -63 86 -83 148 -136 156 -136 5 0 9 -11
9 -25 0 -14 5 -25 11 -25 5 0 8 -4 4 -9 -3 -5 8 -17 24 -27 31 -18 46 -61 29
-81 -8 -10 -6 -13 5 -13 8 0 18 -10 22 -22 4 -13 8 -25 9 -28 8 -24 29 -50 45
-55 10 -3 29 -21 42 -39 12 -19 33 -40 45 -47 47 -30 164 -144 164 -160 0 -10
5 -21 10 -24 6 -3 10 -17 10 -30 0 -13 7 -30 15 -37 38 -32 45 -40 40 -49 -3
-5 -1 -18 5 -29 6 -12 14 -42 17 -68 3 -26 13 -56 23 -67 15 -18 28 -54 32
-92 1 -7 7 -14 15 -17 7 -3 13 -12 13 -21 0 -8 3 -15 8 -15 4 0 15 -18 25 -40
9 -22 21 -40 27 -40 5 0 10 -7 10 -15 0 -8 6 -12 14 -9 8 3 23 -4 33 -15 9
-12 24 -21 33 -21 15 0 46 -38 42 -52 -1 -5 14 -8 33 -8 28 0 36 -4 41 -25 6
-25 36 -41 55 -29 6 4 9 19 5 36 -5 26 -3 29 12 23 36 -15 63 -17 91 -5 24 10
57 16 109 19 6 1 12 7 12 15 0 7 13 16 30 20 34 6 38 24 14 61 -14 22 -14 25
-1 25 8 0 18 7 21 16 3 8 11 12 17 8 18 -10 1 48 -17 62 -21 16 -17 22 14 26
33 4 36 30 4 38 -21 4 -24 12 -26 58 -3 39 -9 58 -26 74 -13 12 -20 28 -17 39
3 10 2 19 -2 21 -3 2 -13 14 -22 27 -14 23 -14 26 3 43 24 24 19 42 -11 46
-17 3 -22 9 -18 22 7 27 -19 59 -43 53 -11 -3 -20 -9 -20 -13 0 -9 -65 -4 -81
6 -6 3 -9 19 -5 35 4 22 0 32 -18 47 -13 10 -25 26 -27 36 -6 29 -35 43 -59
28 -11 -6 -28 -12 -39 -12 -23 0 -71 37 -71 55 0 28 -31 45 -82 45 -36 0 -55
5 -67 18 -9 9 -28 23 -43 31 -16 8 -28 18 -28 22 0 15 -43 49 -61 49 -18 0
-69 58 -69 78 0 6 -8 13 -18 16 -10 4 -23 21 -30 39 -9 23 -23 37 -53 49 -22
10 -38 21 -35 27 12 18 -6 69 -26 74 -14 4 -18 11 -14 25 5 15 1 21 -21 25
-16 3 -36 12 -46 19 -16 12 -17 18 -5 61 6 26 18 47 25 47 8 0 13 14 13 38 0
32 4 39 30 50 30 14 75 8 65 -8 -3 -4 13 -11 34 -15 25 -4 45 -15 54 -28 8
-13 27 -23 42 -25 15 -1 32 -5 38 -9 7 -4 18 -8 25 -9 8 -2 22 -10 31 -18 10
-9 22 -16 27 -16 5 0 17 -9 27 -20 9 -11 26 -21 37 -21 11 -1 25 -2 32 -3 6 0
19 -15 28 -31 11 -20 24 -30 39 -30 12 0 28 -7 35 -17 6 -9 31 -26 54 -38 23
-12 47 -30 52 -40 5 -10 22 -21 36 -24 26 -7 40 -17 99 -73 12 -12 26 -19 29
-16 3 3 8 -2 12 -11 3 -9 12 -16 20 -16 19 0 35 -33 23 -51 -5 -7 -9 -17 -9
-21 0 -9 41 -23 58 -20 10 3 17 -16 14 -39 -2 -9 46 -27 78 -31 14 -2 42 -13
62 -25 21 -13 44 -23 52 -23 8 0 17 -4 21 -9 3 -5 19 -12 35 -16 17 -4 44 -18
61 -32 29 -25 32 -25 57 -11 29 17 80 21 97 8 17 -13 82 -28 92 -21 5 3 13 14
16 24 6 15 13 17 37 12 38 -8 104 20 121 51 7 13 20 26 30 29 29 10 60 55 53
78 -3 11 -1 23 6 27 17 11 20 62 3 78 -8 8 -12 21 -9 29 10 25 -14 59 -97 143
-58 59 -119 96 -139 84 -5 -3 -22 5 -36 19 -15 14 -39 29 -54 32 -16 4 -28 13
-28 20 0 7 -7 18 -16 26 -12 10 -20 10 -35 1 -14 -9 -25 -9 -43 -1 -14 7 -32
8 -43 4 -37 -17 -70 -19 -153 -10 -30 4 -57 11 -59 16 -9 26 -44 47 -65 40
-26 -10 -46 -4 -67 23 l-16 20 -14 -22 c-16 -25 -57 -30 -65 -7 -4 8 -10 12
-15 9 -5 -3 -9 3 -9 14 0 22 -42 47 -65 38 -9 -3 -34 -3 -56 0 -35 6 -39 10
-45 43 -8 41 -18 51 -54 51 -14 0 -43 9 -65 20 -22 11 -45 20 -53 20 -8 0 -25
9 -39 20 -14 11 -37 20 -52 20 -19 0 -32 10 -49 35 -12 19 -27 35 -32 35 -6 0
-10 9 -10 21 0 14 -5 19 -14 16 -8 -3 -16 -1 -18 4 -2 5 -17 11 -33 13 -37 4
-50 44 -36 108 7 28 7 44 0 46 -14 5 -39 32 -39 42 0 21 31 39 53 31 12 -4 28
-6 35 -4 6 3 12 0 12 -5 0 -14 88 -45 111 -39 11 3 26 -1 33 -9 8 -8 29 -14
46 -14 17 0 44 -7 61 -15 16 -9 34 -13 40 -9 23 14 86 10 127 -7 23 -10 44
-18 47 -19 3 0 28 -11 56 -26 28 -14 53 -23 56 -21 2 3 21 0 41 -5 20 -6 48
-11 61 -13 13 -1 26 -7 30 -12 7 -12 64 -27 106 -28 17 0 41 -10 54 -22 12
-11 35 -23 51 -27 19 -3 32 -13 36 -28 9 -35 67 -78 108 -82 22 -1 47 -12 64
-28 26 -25 54 -30 79 -15 7 5 22 3 33 -3 16 -9 25 -8 36 1 10 8 18 8 27 1 7
-6 29 -9 48 -6 19 3 54 -1 79 -9 39 -11 49 -11 72 2 26 15 28 15 43 -6 26 -37
52 -26 47 18 -1 4 7 14 17 23 17 16 20 16 35 1 10 -10 16 -12 16 -5 0 7 8 10
19 7 23 -6 42 5 45 26 1 9 13 28 25 41 13 14 24 37 24 51 0 15 6 29 13 32 20
8 17 36 -5 50 -16 10 -19 20 -14 48 4 23 2 35 -6 35 -6 0 -11 7 -11 15 0 7 -6
18 -14 22 -8 4 -16 21 -18 38 -3 29 -27 65 -39 59 -10 -6 -69 17 -69 26 0 5
-9 12 -21 15 -11 4 -18 12 -16 18 10 27 -14 48 -52 46 -20 -2 -44 1 -51 6 -8
5 -21 10 -28 11 -8 2 -22 10 -33 20 -14 13 -27 15 -56 9 -68 -15 -150 -9 -180
13 -22 15 -33 17 -50 9 -13 -5 -23 -16 -23 -24 0 -16 -2 -16 -35 -1 -20 9 -31
8 -50 -2 -19 -10 -22 -16 -13 -22 22 -14 -21 -38 -66 -37 -23 1 -45 0 -51 -2
-5 -2 -27 3 -48 10 -21 7 -47 11 -59 8 -14 -4 -30 4 -53 27 -25 26 -39 32 -59
29 -15 -3 -26 -1 -26 6 0 6 -9 11 -20 11 -21 0 -38 40 -25 60 3 5 -1 17 -9 26
-16 16 -22 53 -8 55 46 4 67 12 99 38 45 36 80 33 89 -8 3 -14 9 -35 14 -46
l8 -20 8 20 c4 11 12 23 18 28 7 5 6 10 -4 17 -13 9 -12 12 5 25 16 13 39 14
120 9 55 -3 111 -1 125 4 25 9 158 -1 190 -15 8 -3 17 -6 20 -5 3 0 59 -7 125
-17 116 -17 121 -17 162 1 46 20 153 32 153 16 0 -5 3 -7 8 -4 4 2 27 0 52 -4
28 -5 50 -4 57 2 7 6 19 8 27 5 7 -3 18 -1 23 4 6 6 20 6 34 1 36 -13 57 -4
64 27 6 27 56 67 69 54 3 -3 6 1 6 10 0 10 8 17 20 17 12 0 26 12 35 30 9 17
11 30 5 30 -15 0 -12 26 4 39 7 6 12 22 11 36 -2 14 7 35 21 52 21 25 22 28 7
34 -13 4 -18 19 -19 61 -2 56 -5 63 -69 132 -25 27 -34 31 -48 22 -13 -8 -24
-7 -45 4 -32 19 -128 27 -118 11 7 -11 3 -12 -39 -16 -11 -1 -36 -5 -55 -8
-30 -6 -78 -14 -102 -16 -5 -1 -8 -7 -8 -15 0 -12 -28 -21 -100 -31 -72 -10
-108 -19 -122 -32 -13 -12 -30 -14 -68 -10 -48 6 -50 5 -50 -18 0 -14 -4 -25
-9 -25 -5 0 -12 -8 -16 -18 -7 -23 -54 -47 -67 -34 -5 5 -28 6 -55 1 -25 -5
-50 -6 -56 -2 -19 12 -146 9 -151 -3 -3 -8 -22 -10 -53 -7 -36 4 -54 12 -70
31 -17 20 -23 23 -23 11 0 -13 -9 -17 -36 -15 -19 1 -40 -4 -45 -11 -6 -6 -34
-12 -62 -12 -58 -1 -64 -2 -124 -21 -38 -12 -43 -11 -64 9 -14 13 -29 19 -39
15 -41 -18 -72 -16 -96 7 -13 12 -24 18 -24 13 0 -5 -10 -10 -21 -11 -12 -1
-26 -6 -31 -11 -5 -5 -27 -6 -51 -1 -57 11 -119 11 -113 0 8 -12 -39 -21 -79
-16 -16 1 -30 4 -30 5 0 1 -16 3 -35 6 -40 5 -70 35 -70 71 0 21 4 24 28 21
16 -2 31 -12 37 -25 8 -19 18 -23 51 -23 37 0 41 2 39 24 -3 26 0 32 37 65 28
24 88 38 88 21 0 -6 19 -10 43 -10 24 0 48 -5 54 -11 8 -8 18 -6 36 6 17 11
34 14 49 10 16 -5 20 -4 13 3 -5 5 -19 12 -30 14 -25 4 -32 43 -11 63 17 17
56 20 56 4 0 -5 5 -7 11 -4 7 5 4 13 -7 26 -14 15 -14 21 -4 34 14 17 40 20
40 5 0 -5 16 -10 35 -10 19 0 35 5 35 10 0 17 20 11 54 -15 37 -28 84 -33 92
-10 7 16 74 22 74 6 0 -5 11 -11 24 -13 18 -4 26 0 30 15 3 14 11 18 25 14 11
-3 22 0 24 7 2 7 35 11 91 12 48 0 91 5 97 11 6 6 12 25 12 41 2 27 6 32 37
37 46 9 58 20 53 49 -4 17 1 27 16 36 12 6 19 15 16 21 -8 11 43 32 62 25 7
-3 13 -12 13 -20 0 -9 17 -20 41 -27 36 -11 42 -11 51 4 12 22 34 22 47 0 8
-15 10 -11 11 20 0 20 5 37 10 37 6 0 9 3 9 8 -5 29 5 45 38 59 30 12 44 13
69 4 17 -6 46 -11 65 -11 49 0 80 -10 72 -24 -3 -6 3 -3 14 7 12 10 24 29 27
43 6 21 36 35 36 16 0 -4 18 -6 40 -4 25 3 40 0 40 -7 0 -18 56 28 69 55 6 13
17 24 25 24 10 0 13 6 10 15 -4 10 2 18 17 24 13 4 23 12 21 17 -1 5 6 10 18
12 11 2 20 10 20 18 0 8 3 13 8 13 4 -1 24 -1 45 0 30 1 37 5 37 21 0 13 10
24 25 30 25 10 27 13 29 60 1 18 7 26 24 28 23 4 31 22 10 22 -17 0 -38 46
-38 81 0 17 8 34 22 43 12 9 17 16 11 16 -6 0 -14 14 -18 30 -5 24 -11 30 -26
25 -14 -5 -20 0 -25 19 -3 14 -10 23 -15 20 -9 -5 -13 9 -10 33 1 6 -4 15 -10
19 -8 5 -9 3 -4 -5 5 -9 2 -12 -11 -9 -11 2 -20 9 -20 16 -1 6 -2 17 -3 22 0
6 -12 16 -26 22 -14 6 -25 17 -25 25 0 7 -11 18 -24 23 -13 5 -27 18 -31 30
-9 30 -45 41 -72 22 -20 -13 -26 -13 -46 1 -19 13 -31 13 -71 3 -26 -7 -51
-17 -54 -22 -16 -23 -52 -2 -52 32 0 17 -5 24 -20 24 -20 0 -24 -12 -20 -57 1
-16 -8 -26 -34 -38 -19 -9 -39 -14 -45 -11 -5 4 -18 -3 -29 -14 -10 -11 -34
-22 -51 -25 -18 -2 -38 -8 -44 -13 -7 -5 -22 -8 -34 -7 -12 1 -20 -2 -18 -6 8
-11 -17 -26 -56 -33 -25 -4 -36 -12 -35 -23 0 -8 -7 -17 -17 -19 -25 -3 -32
-11 -34 -37 -3 -43 -8 -62 -17 -69 -5 -3 -10 -24 -11 -45 -3 -61 -14 -86 -36
-80 -10 3 -24 -1 -30 -9 -9 -11 -8 -19 6 -35 18 -19 18 -20 -1 -40 -11 -10
-30 -21 -43 -24 -61 -12 -111 -41 -104 -61 4 -11 -10 -14 -112 -29 -22 -4 -52
-15 -67 -25 -28 -21 -51 -23 -133 -17 -27 3 -68 -2 -90 -9 -41 -13 -104 -13
-138 1 -14 6 -20 2 -24 -14 -5 -21 -43 -31 -43 -11 0 6 -16 10 -36 10 -31 0
-36 3 -31 20 4 15 0 20 -14 20 -24 0 -24 -8 0 -34 30 -34 34 -60 11 -84 -12
-12 -28 -23 -38 -23 -126 -10 -136 -6 -127 56 5 40 3 43 -24 54 -15 7 -33 22
-39 35 -8 18 -5 29 19 61 36 48 46 55 85 55 22 0 37 8 53 29 13 16 35 34 51
41 27 11 48 59 34 81 -3 5 0 9 5 9 6 0 11 6 11 13 0 8 9 22 20 32 11 10 20 24
20 32 0 7 5 13 10 13 6 0 15 11 20 25 6 15 17 25 30 25 11 0 23 7 26 15 4 8
12 15 20 15 7 0 21 11 30 25 9 14 22 25 28 25 7 0 17 15 24 33 7 18 21 43 32
55 23 24 44 71 41 90 -1 6 3 12 9 12 5 0 9 6 7 13 -1 7 11 13 31 15 24 2 32 8
30 20 -2 12 3 16 15 14 12 -2 21 4 24 17 3 12 12 21 20 21 8 0 17 9 20 21 4
14 12 19 24 16 11 -3 16 0 13 8 -3 7 2 19 11 26 9 8 31 29 50 47 19 17 39 32
44 32 5 0 12 9 16 19 7 22 53 37 68 22 14 -14 47 5 47 28 0 18 24 34 70 47 14
4 35 15 48 25 17 13 35 16 67 13 25 -2 45 0 45 5 0 5 10 13 23 17 31 10 67 51
61 69 -7 17 11 21 21 5 3 -5 15 -10 26 -10 18 0 25 25 20 68 -1 6 3 12 9 12 6
0 16 14 21 30 9 24 17 30 41 30 27 0 29 2 23 29 -5 23 -1 33 18 47 24 20 25
43 1 57 -18 10 -18 37 0 37 13 0 26 20 26 41 0 5 -11 9 -24 9 -16 0 -26 7 -30
23 -3 12 -1 24 4 25 6 2 10 10 10 17 0 25 -21 28 -43 7 -15 -14 -27 -18 -36
-12 -12 7 -12 12 3 35 14 21 15 29 5 41 -16 19 -31 18 -57 -6 l-21 -20 -17 25
c-12 18 -22 23 -39 19 -14 -4 -24 0 -28 9 -3 9 2 17 14 20 20 5 27 41 10 52
-9 5 -36 -16 -43 -34 -1 -4 -22 -18 -45 -29 -41 -19 -42 -19 -48 -1 -9 28 -45
25 -45 -4 0 -31 -18 -47 -52 -47 -16 0 -31 -7 -34 -15 -5 -12 -15 -14 -40 -9
-50 9 -66 0 -54 -30 8 -21 4 -28 -26 -51 -20 -16 -37 -39 -41 -56 -3 -16 -14
-31 -25 -35 -10 -3 -23 -17 -28 -30 -5 -13 -21 -29 -35 -36 -14 -6 -25 -19
-25 -28 0 -9 -12 -22 -26 -29 -21 -9 -25 -16 -20 -35 3 -13 -1 -37 -10 -54 -8
-17 -16 -50 -17 -74 -4 -69 -20 -88 -73 -88 -39 0 -50 -5 -83 -39 -21 -21 -41
-46 -44 -55 -4 -9 -13 -16 -22 -16 -8 0 -15 -3 -15 -8 0 -4 -16 -25 -35 -47
-19 -22 -35 -43 -35 -48 0 -4 -12 -12 -26 -17 -19 -8 -24 -15 -19 -30 3 -11 2
-20 -3 -20 -6 0 -13 -11 -16 -25 -4 -14 -11 -23 -16 -20 -6 4 -13 -2 -17 -12
-7 -20 -92 -103 -105 -103 -4 0 -8 -9 -8 -20 0 -15 -7 -20 -25 -20 -14 0 -25
-6 -25 -12 0 -16 -85 -100 -93 -92 -3 3 -12 -3 -19 -15 -7 -12 -19 -21 -26
-21 -7 0 -10 -4 -7 -10 3 -5 -3 -10 -15 -10 -19 0 -21 -4 -15 -29 5 -24 2 -32
-14 -41 -12 -6 -21 -17 -21 -25 0 -8 -4 -15 -10 -15 -5 0 -10 -5 -10 -11 0 -6
-6 -17 -14 -25 -8 -8 -19 -14 -25 -14 -6 0 -11 -6 -11 -13 0 -8 -14 -30 -31
-50 -30 -36 -43 -41 -129 -51 -47 -6 -63 -10 -77 -19 -6 -4 -29 10 -55 34 -23
22 -62 49 -84 60 -28 12 -44 27 -48 44 -4 14 -11 25 -16 25 -16 0 -11 40 5 46
8 4 13 10 10 14 -2 4 10 23 28 42 17 18 33 40 35 47 2 7 20 32 42 55 30 31 38
46 33 64 -4 18 3 31 28 56 19 18 47 52 62 76 16 23 37 45 48 47 10 3 19 14 19
24 0 11 4 19 9 19 5 0 8 11 5 25 -3 17 1 27 11 31 8 4 15 14 15 23 0 10 11 28
24 40 15 14 22 30 19 42 -3 12 0 19 9 19 17 0 68 57 68 77 0 9 6 13 14 10 9
-4 16 3 20 19 4 13 13 24 22 24 8 0 18 8 21 18 4 9 15 23 25 30 10 7 18 20 18
28 0 8 5 14 10 14 6 0 10 8 10 18 0 10 7 28 16 40 9 13 17 41 19 64 2 24 10
47 19 53 9 7 13 15 10 18 -6 5 2 17 36 55 8 9 15 22 16 27 1 22 18 70 26 76 5
3 11 16 13 30 5 27 43 59 65 56 10 -1 16 8 18 31 2 20 9 32 18 32 9 0 12 5 8
12 -5 8 -2 9 10 5 9 -4 15 -3 12 2 -3 4 6 14 19 21 14 7 25 17 25 22 0 5 4 7
9 3 5 -3 12 -1 16 5 3 5 16 10 28 11 12 0 16 3 10 6 -19 7 -16 27 7 48 11 10
17 21 15 26 -12 18 30 81 62 94 18 8 33 21 33 29 0 8 9 18 20 21 11 3 20 10
20 14 0 4 24 32 54 62 52 53 53 55 47 99 -9 63 -8 85 6 83 6 -1 17 4 23 12 18
22 -5 48 -30 35 -10 -6 -22 -10 -25 -10 -10 0 6 42 21 58 20 20 17 29 -16 49
-21 12 -30 25 -30 44 0 39 -76 100 -108 88 -14 -6 -31 -5 -43 1 -29 16 -86 2
-104 -26 -9 -14 -27 -29 -41 -34 -14 -6 -24 -18 -24 -29 0 -13 -13 -24 -40
-35 -22 -9 -40 -21 -40 -28 0 -6 -14 -23 -30 -37 -17 -14 -32 -37 -33 -50 -3
-17 -11 -25 -27 -28 -13 -2 -26 -6 -29 -9 -9 -8 16 -39 29 -36 7 1 10 -1 8 -5
-30 -63 -31 -63 -63 -57 -26 5 -33 1 -45 -20 -7 -14 -21 -26 -31 -26 -27 0
-31 -15 -12 -50 16 -27 16 -32 3 -40 -46 -28 -44 -23 -37 -110 2 -28 -3 -58
-13 -80 -9 -19 -16 -53 -15 -75 2 -22 0 -44 -3 -50 -4 -5 -7 -14 -9 -20 -11
-49 -43 -115 -67 -137 -16 -16 -27 -28 -24 -28 4 0 -7 -14 -24 -30 -19 -19
-28 -36 -24 -46 6 -16 -38 -64 -57 -64 -5 0 -6 -4 -2 -9 3 -5 1 -12 -5 -16 -6
-4 -8 -11 -5 -16 4 -5 -5 -20 -19 -34 -15 -14 -26 -33 -26 -41 0 -8 -11 -19
-25 -24 -14 -5 -26 -18 -26 -30 -2 -33 -3 -34 -28 -59 -17 -17 -22 -30 -17
-52 4 -23 2 -29 -12 -29 -30 0 -67 -25 -67 -45 0 -14 -8 -21 -27 -23 -24 -3
-27 -7 -26 -36 1 -25 -7 -40 -32 -64 -18 -18 -36 -32 -40 -32 -8 0 -23 -39
-21 -52 1 -7 -14 -12 -31 -9 -10 1 -58 -63 -58 -79 0 -9 -12 -11 -46 -6 -26 3
-52 6 -58 6 -8 0 -12 20 -13 55 0 30 3 55 8 55 5 0 9 7 9 15 0 8 4 15 9 15 5
0 7 25 5 55 -4 45 -1 61 15 84 12 16 21 40 21 54 0 14 7 28 16 31 8 3 13 10 9
15 -3 5 -1 12 5 16 5 3 10 15 10 26 0 11 5 30 12 42 6 12 13 33 14 47 2 13 9
29 16 35 30 22 56 79 47 103 -5 13 -5 22 1 22 6 0 9 4 7 9 -1 5 7 16 18 24 14
11 18 25 17 56 -2 32 1 41 13 41 13 0 14 4 5 21 -7 11 -10 22 -8 23 2 1 18 13
36 25 17 12 32 29 32 37 0 10 6 13 18 10 16 -5 18 -2 14 24 -3 21 0 32 12 36
9 3 16 17 16 30 0 13 4 24 10 24 5 0 9 3 9 8 -3 19 3 28 30 40 20 9 28 18 24
30 -5 21 50 82 75 82 19 1 63 30 44 30 -7 0 -17 11 -22 25 -5 14 -14 25 -19
25 -15 0 -3 43 15 53 9 5 24 17 34 27 10 10 27 23 38 29 12 7 18 18 16 28 -3
10 4 28 15 40 12 13 17 25 11 28 -14 9 -12 31 5 48 7 8 17 26 21 41 3 15 16
32 28 38 21 11 42 36 45 51 2 16 42 47 60 47 38 0 51 12 51 44 0 20 7 35 20
44 30 19 26 66 -7 91 -16 11 -22 21 -15 21 7 0 10 5 7 10 -4 6 -1 17 5 25 15
18 3 37 -19 30 -11 -3 -25 4 -38 18 -18 22 -19 25 -4 34 21 14 8 28 -16 18
-35 -15 -43 -13 -60 16 -10 16 -23 29 -30 29 -7 0 -13 6 -13 14 0 8 -13 25
-28 38 -15 13 -31 31 -35 41 -11 30 -38 33 -59 7 -16 -20 -22 -22 -39 -12 -27
17 -39 15 -61 -13 -11 -14 -24 -23 -29 -20 -5 4 -9 1 -9 -5 0 -6 -10 -4 -24 5
-25 17 -51 12 -60 -11 -4 -10 -13 -12 -31 -8 -19 5 -31 1 -45 -16 -11 -13 -20
-31 -20 -40 0 -10 -7 -23 -15 -30 -24 -20 -29 -50 -9 -64 15 -11 16 -19 8 -47
-8 -27 -7 -39 5 -59 19 -30 22 -118 4 -125 -16 -5 -17 -65 -2 -65 14 0 7 -133
-8 -152 -6 -7 -14 -28 -18 -45 -3 -18 -10 -33 -14 -33 -5 0 -20 -23 -35 -51
-19 -37 -23 -55 -16 -68 10 -20 3 -61 -11 -61 -5 0 -9 -7 -9 -15 0 -8 -5 -15
-11 -15 -5 0 -8 -4 -5 -8 3 -5 -4 -18 -14 -30 -11 -12 -20 -33 -20 -47 0 -30
-24 -80 -44 -92 -7 -4 -22 -35 -33 -68 -10 -33 -24 -59 -30 -58 -7 2 -9 -9 -6
-27 2 -17 0 -30 -6 -30 -6 0 -8 -6 -5 -14 3 -8 1 -17 -5 -20 -5 -4 -17 -31
-25 -60 -9 -30 -23 -56 -31 -60 -9 -3 -15 -19 -15 -41 0 -20 -5 -46 -11 -57
-17 -32 -56 -68 -65 -60 -4 4 -4 1 0 -6 4 -7 -3 -25 -19 -43 -17 -21 -24 -38
-19 -51 3 -11 2 -23 -3 -27 -5 -3 -19 -21 -32 -39 -20 -28 -21 -37 -11 -66 12
-37 5 -66 -17 -66 -8 0 -12 -4 -8 -9 3 -5 -5 -17 -17 -25 -12 -9 -17 -16 -10
-16 6 0 12 -8 12 -17 1 -28 -63 -153 -78 -153 -7 0 -26 7 -41 15 -16 8 -31 12
-34 9 -8 -8 -25 28 -36 76 -8 36 -6 45 10 61 10 10 19 24 19 29 0 6 9 29 19
51 17 34 17 41 5 46 -17 6 -19 43 -3 43 8 0 8 4 -1 15 -6 8 -17 13 -23 12 -14
-2 -11 28 7 64 11 21 11 29 0 44 -18 24 -7 105 17 126 13 12 17 26 14 48 -2
17 0 29 5 26 8 -5 26 51 22 67 -1 4 7 10 18 13 15 5 18 13 15 45 -3 26 1 42
11 51 10 8 11 15 4 24 -8 9 -8 15 0 20 6 3 8 11 5 16 -4 5 1 9 11 9 14 0 16 7
11 37 -5 26 -2 42 9 54 8 9 17 38 21 64 4 39 2 51 -11 61 -15 10 -15 15 -4 33
7 12 17 21 21 21 5 0 5 20 2 43 -5 34 -3 48 10 61 13 12 14 20 6 30 -8 10 -6
19 9 36 11 13 20 36 20 51 0 15 4 30 9 33 4 3 6 16 4 30 -3 13 0 27 6 30 6 4
11 20 11 35 0 18 9 35 25 47 15 12 25 29 25 45 0 14 9 34 20 44 11 10 20 29
20 42 0 13 6 26 14 29 23 9 28 35 11 54 -13 15 -14 27 -6 94 0 5 4 6 7 3 7 -7
37 28 47 56 4 9 11 16 16 15 16 -5 94 92 94 117 0 14 6 30 13 36 8 6 14 29 14
50 0 22 5 39 11 39 6 0 9 7 5 15 -3 8 2 19 11 23 10 6 14 16 10 26 -4 9 -2 16
3 16 5 0 7 14 5 31 -3 23 2 36 21 51 14 13 24 32 24 49 0 15 7 29 15 33 18 6
16 53 -3 65 -6 4 -18 24 -27 44 -9 21 -23 41 -32 44 -14 5 -13 8 6 15 12 4 19
13 16 18 -4 6 -12 9 -18 7 -7 -2 -24 2 -39 10 -15 7 -31 13 -35 13 -5 0 -8 8
-8 17 0 12 8 18 24 18 13 0 26 6 28 13 4 10 -8 14 -33 11 -4 0 -10 5 -15 12
-6 10 -13 11 -31 2 -13 -7 -32 -13 -43 -15 -11 -2 -21 -12 -23 -23 -8 -42 -52
-64 -52 -27 0 24 -8 32 -26 25 -19 -7 -18 -43 2 -43 9 0 14 -7 12 -17 -2 -12
-13 -17 -33 -18 -19 0 -29 -5 -27 -13 1 -7 -5 -15 -13 -18 -8 -3 -29 -30 -46
-60 -17 -30 -34 -54 -38 -54 -5 0 -23 -13 -41 -28 -25 -23 -31 -34 -25 -51 5
-15 1 -29 -12 -43 -10 -11 -18 -34 -19 -52 -1 -17 -2 -45 -3 -62 0 -19 -15
-48 -36 -75 -19 -24 -35 -50 -35 -58 0 -8 -14 -27 -30 -43 -16 -15 -30 -33
-30 -38 0 -17 -26 -11 -53 13 -34 29 -34 50 -1 68 24 12 26 17 19 63 -4 31 -2
52 4 56 6 3 12 19 13 34 1 16 12 36 23 45 16 12 19 23 15 46 -4 20 0 40 12 60
10 17 18 43 18 58 0 16 8 41 18 55 41 59 62 112 56 140 -4 21 -2 31 10 35 35
14 16 44 -31 51 -10 2 -23 13 -30 26 -6 13 -23 30 -38 37 -14 8 -23 18 -20 23
3 5 1 18 -5 29 -8 16 -5 25 15 45 14 14 25 30 25 36 0 16 -47 12 -65 -6 -15
-16 -18 -15 -38 5 l-22 22 23 5 c26 7 29 36 6 54 -20 17 -43 -4 -46 -42 -1
-16 -11 -32 -25 -39 -30 -16 -35 -9 -21 29 7 17 9 34 5 38 -11 12 -37 -5 -47
-31 -11 -30 -21 -31 -45 -5 -29 32 -45 25 -45 -18 0 -32 -5 -41 -25 -50 -14
-6 -25 -18 -25 -27 0 -18 -21 -20 -38 -3 -9 9 -15 9 -24 0 -8 -8 -5 -13 13
-20 19 -8 24 -16 23 -44 0 -18 -6 -43 -12 -55 -9 -16 -8 -23 3 -33 16 -13 21
-35 6 -25 -16 9 -42 -25 -35 -47 3 -12 -1 -27 -11 -38 -15 -17 -14 -20 9 -45
24 -25 24 -29 11 -55 -8 -15 -12 -38 -10 -51 3 -12 -5 -37 -16 -56 -21 -34
-21 -34 -1 -56 28 -31 38 -135 14 -154 -16 -12 -15 -14 4 -30 23 -19 54 -73
54 -93 0 -7 -9 -23 -20 -37 -15 -19 -19 -35 -14 -58 4 -23 1 -37 -13 -50 -19
-19 -24 -40 -23 -87 0 -19 -5 -28 -16 -28 -12 0 -15 -6 -11 -22 3 -13 8 -33
10 -45 3 -13 2 -25 -4 -28 -5 -4 -9 -26 -9 -50 0 -24 -5 -47 -11 -51 -6 -3 -9
-17 -6 -30 3 -15 0 -24 -9 -24 -23 0 -44 -30 -38 -55 4 -17 0 -26 -13 -33 -18
-10 -23 -30 -27 -115 -1 -26 -9 -45 -29 -63 -15 -13 -27 -35 -27 -48 0 -13 -6
-38 -13 -55 -12 -29 -11 -37 9 -79 30 -60 29 -66 -1 -86 -14 -9 -25 -25 -25
-36 0 -11 -4 -20 -9 -20 -11 0 -9 -39 3 -58 4 -7 0 -19 -8 -28 -9 -8 -16 -21
-16 -29 0 -7 -6 -15 -12 -18 -10 -3 -9 -11 3 -33 10 -18 14 -36 9 -49 -4 -11
-6 -23 -3 -28 2 -4 -9 -21 -25 -37 -36 -36 -52 -114 -30 -149 11 -19 11 -24
-5 -36 -10 -7 -20 -29 -22 -50 -2 -20 -5 -38 -7 -39 -38 -25 -60 -32 -101 -31
-26 1 -50 5 -54 9 -4 3 -1 30 7 59 15 58 15 116 1 130 -6 6 -6 19 0 35 6 15 8
36 5 48 -3 12 -1 24 5 26 7 2 12 33 13 78 2 94 29 173 65 190 24 11 25 13 8
25 -14 10 -17 21 -12 49 4 21 13 36 21 36 18 0 18 3 -7 52 -11 22 -18 49 -16
59 3 12 0 19 -9 19 -15 0 -18 12 -6 24 4 4 7 26 8 49 0 22 5 42 12 45 14 4 5
32 -17 51 -12 10 -13 15 -4 18 9 3 10 10 3 24 -8 15 -6 21 10 31 11 7 20 18
20 24 0 6 6 16 13 22 13 11 15 101 3 121 -4 5 0 16 8 24 13 12 13 18 0 42 -12
24 -12 31 2 59 11 20 17 60 19 116 1 63 6 93 20 113 17 27 17 28 -4 51 -25 26
-27 58 -6 76 18 15 19 34 2 52 -14 14 -18 111 -5 124 4 4 5 17 2 30 -3 12 1
33 9 46 9 14 14 45 13 78 -1 42 2 58 15 68 28 19 35 71 12 88 -17 13 -17 15 0
28 10 8 17 27 17 47 0 23 6 38 20 47 27 17 25 43 -5 66 -29 21 -32 41 -10 62
23 23 18 49 -10 62 -22 10 -24 15 -15 32 6 11 8 24 6 29 -3 5 1 11 9 15 39 14
-5 64 -45 51 -23 -7 -29 20 -6 28 8 3 14 21 14 46 1 39 0 41 -31 41 -45 0 -63
13 -42 30 30 25 18 48 -27 52 -24 3 -53 1 -66 -4 -13 -4 -37 -8 -53 -8 -25 0
-30 -5 -35 -30 -7 -33 -33 -40 -54 -15 -15 18 -32 7 -37 -24 -2 -12 5 -21 18
-24 32 -8 13 -26 -22 -22 -52 7 -69 16 -69 36 0 17 -11 24 -32 20 -5 0 -8 8
-8 19 0 11 6 19 13 17 7 -1 13 11 15 31 3 31 -6 39 -40 33 -5 0 -8 8 -8 20 0
25 -17 59 -30 59 -6 0 -18 -9 -27 -20 -24 -28 -36 -25 -57 15 -22 40 -35 40
-54 2 -19 -40 -66 -69 -98 -61 -25 7 -26 5 -22 -26 3 -22 0 -34 -9 -37 -11 -4
-13 -15 -8 -39 5 -29 3 -34 -13 -34 -11 0 -25 -6 -31 -14 -10 -12 -7 -18 13
-31 14 -10 26 -23 26 -30 0 -17 -25 -26 -37 -14 -13 13 -43 0 -43 -18 0 -8 5
-23 11 -34 9 -17 7 -21 -10 -26 -28 -7 -26 -19 3 -38 21 -14 24 -22 20 -54 -2
-21 0 -50 5 -64 9 -22 7 -26 -15 -31 -29 -8 -31 -30 -5 -48 22 -16 26 -69 8
-106 -8 -18 -8 -28 2 -44 19 -31 21 -56 5 -62 -19 -7 -18 -42 1 -50 20 -7 19
-50 -1 -81 -9 -14 -14 -32 -10 -40 3 -9 -3 -19 -14 -25 -23 -12 -26 -30 -8
-48 6 -6 13 -17 15 -24 1 -7 4 -20 5 -29 2 -9 12 -28 21 -42 17 -26 17 -93 0
-120 -9 -14 -4 -97 6 -116 10 -16 -6 -61 -21 -61 -5 0 -7 -8 -4 -18 4 -10 0
-27 -8 -37 -12 -17 -12 -23 5 -47 25 -35 32 -115 10 -123 -11 -4 -12 -8 -3
-17 19 -19 14 -57 -8 -70 -11 -7 -20 -19 -20 -26 0 -7 -10 -26 -22 -43 -19
-25 -20 -33 -10 -49 6 -11 9 -32 7 -47 -5 -28 -13 -107 -14 -150 -1 -18 -7
-23 -26 -23 -14 0 -26 5 -26 10 -1 6 -2 14 -3 19 0 5 -4 13 -8 17 -4 4 -5 24
-2 46 4 22 3 38 -3 38 -6 0 -20 9 -33 20 -13 11 -19 20 -15 20 4 0 0 9 -10 20
-13 14 -17 36 -17 85 0 49 -4 65 -14 65 -17 0 -19 31 -3 47 8 8 7 17 -3 32 -8
12 -18 18 -22 14 -4 -4 -18 5 -31 19 -13 14 -29 28 -36 30 -8 3 -8 14 -1 42
10 34 9 39 -8 43 -23 6 -36 41 -21 56 16 16 13 57 -5 64 -13 5 -15 14 -10 45
6 34 3 42 -18 59 -22 17 -24 23 -14 50 9 26 8 32 -11 45 -16 12 -21 25 -20 52
1 20 -1 60 -4 88 -4 37 -1 58 8 70 19 25 18 31 -5 37 -25 6 -26 38 -2 60 20
18 21 45 3 100 -7 21 -11 49 -8 63 2 13 1 24 -2 24 -4 0 -7 9 -8 20 -2 22 17
26 48 10 16 -9 19 -7 19 14 0 19 -4 23 -19 19 -16 -4 -19 0 -17 26 1 16 9 38
19 48 11 13 13 23 7 33 -15 24 -12 36 15 50 28 15 32 35 10 56 -11 11 -12 21
-4 41 6 17 6 30 -1 38 -8 9 -6 24 5 53 9 22 15 51 13 64 -2 13 3 28 11 34 13
10 13 18 3 52 -7 23 -10 52 -7 65 4 15 1 30 -9 40 -22 21 -20 34 9 59 l24 21
-24 29 c-21 25 -23 32 -12 49 10 18 9 23 -13 40 -14 10 -32 26 -42 35 -9 8
-27 14 -41 12 -30 -3 -71 29 -58 46 11 14 -4 56 -20 56 -7 0 -18 -8 -25 -17
-11 -17 -13 -16 -23 9 -14 37 -30 43 -40 15z m1167 -852 c-2 -14 -7 -25 -12
-24 -11 1 -26 -22 -26 -42 0 -9 12 -21 26 -27 19 -10 24 -17 19 -33 -4 -12 -8
-38 -9 -58 -1 -22 -10 -45 -23 -58 -20 -20 -22 -73 -2 -73 5 0 9 -9 9 -20 0
-11 9 -29 20 -40 16 -16 18 -25 11 -39 -13 -23 -3 -87 15 -102 18 -15 18 -59
0 -85 -17 -23 -22 -62 -11 -86 4 -10 5 -25 2 -33 -4 -8 -3 -17 2 -19 10 -6 8
-77 -3 -94 -4 -7 -5 -24 -2 -38 4 -14 2 -42 -4 -63 -8 -30 -7 -46 5 -74 9 -23
11 -38 5 -42 -6 -3 -17 -20 -26 -37 -15 -29 -15 -32 2 -41 17 -10 17 -11 -1
-17 -28 -10 -49 -125 -29 -157 12 -19 11 -24 -7 -48 -14 -17 -22 -45 -25 -83
-3 -54 -9 -108 -15 -142 -5 -33 2 -60 15 -60 16 0 10 -39 -8 -53 -8 -6 -7 -10
2 -14 17 -7 15 -26 -6 -44 -12 -11 -23 -42 -31 -93 -12 -72 -11 -77 8 -102 27
-34 26 -44 -4 -69 -20 -15 -26 -31 -29 -70 -3 -54 -17 -68 -80 -79 -16 -3 -32
-9 -35 -13 -14 -19 -76 -13 -103 11 -36 30 -35 51 2 73 37 21 38 33 5 33 -25
0 -25 1 -12 33 14 35 3 72 -27 89 -17 10 -11 38 23 108 11 24 19 52 15 62 -3
10 -1 18 4 18 6 0 8 9 5 19 -4 14 6 27 36 47 24 15 41 35 41 45 0 11 6 19 13
19 7 0 5 5 -5 11 -13 7 -17 23 -17 69 1 38 4 58 11 54 14 -9 -7 30 -28 50 -14
15 -14 19 5 45 13 18 17 32 11 36 -18 11 -11 25 13 26 12 0 16 3 10 6 -15 6
-17 39 -4 48 12 7 -12 80 -34 101 -17 17 -20 70 -5 108 6 17 6 27 -1 31 -5 4
-7 15 -4 25 3 10 0 20 -8 23 -19 7 -11 51 14 73 10 9 19 28 19 41 0 12 5 23
11 23 17 0 1 51 -24 78 -13 14 -17 26 -12 30 6 4 12 16 13 27 2 11 12 34 22
50 l19 31 -29 33 c-15 19 -26 40 -23 48 3 7 2 21 -2 31 -5 9 -10 25 -11 34 -2
10 -5 21 -6 25 -4 12 23 75 40 95 9 11 12 27 8 43 -4 14 -2 25 2 25 5 0 18 8
29 18 18 16 22 33 23 88 0 16 7 21 31 21 34 0 49 16 42 43 -3 12 3 23 17 30
16 9 20 18 16 35 -3 13 -2 27 4 30 5 3 10 15 10 27 0 14 5 18 15 14 8 -3 25
-1 37 4 35 14 40 12 36 -15z m-662 -2439 c11 -8 36 -14 56 -14 19 0 45 -5 57
-11 12 -7 26 -9 31 -6 6 4 31 -4 57 -16 39 -19 50 -20 78 -11 45 17 80 15 123
-7 20 -10 42 -20 47 -21 6 -1 22 -10 36 -20 14 -10 38 -20 55 -22 16 -2 37
-13 46 -24 10 -12 31 -24 48 -27 17 -4 36 -11 43 -17 92 -76 102 -82 131 -77
22 3 41 -4 73 -26 24 -17 43 -34 43 -39 0 -4 6 -8 14 -8 8 0 18 -9 21 -20 4
-11 10 -18 15 -15 4 3 13 -1 19 -9 6 -7 26 -17 44 -21 17 -4 37 -9 42 -10 6
-2 16 -4 24 -6 7 -2 24 -14 38 -25 13 -12 36 -26 51 -32 15 -6 36 -13 47 -18
11 -4 26 -8 34 -10 7 -1 18 -7 24 -13 6 -6 30 -11 52 -11 29 0 47 -6 60 -20
10 -11 25 -20 34 -20 9 0 27 -9 41 -20 14 -11 32 -20 40 -20 9 0 22 -9 30 -20
8 -11 18 -20 23 -20 5 0 27 -18 49 -40 23 -22 49 -40 60 -40 10 0 18 -4 18 -9
0 -8 32 -22 55 -25 6 -1 13 -5 16 -9 3 -4 16 -9 28 -10 14 -1 29 -13 38 -31
16 -30 51 -65 66 -66 11 0 74 -48 107 -80 14 -14 43 -34 65 -45 46 -23 65 -39
65 -55 0 -6 11 -23 25 -38 14 -15 25 -23 25 -19 0 5 18 -2 40 -14 22 -13 40
-26 40 -30 0 -4 18 -25 40 -46 28 -26 42 -49 45 -73 3 -22 15 -44 35 -61 16
-15 30 -34 30 -42 0 -9 11 -25 25 -36 27 -20 75 -85 75 -101 0 -4 6 -10 13
-13 8 -2 11 -22 10 -60 -1 -38 3 -59 13 -68 21 -17 17 -70 -10 -122 -14 -25
-26 -54 -28 -64 -3 -18 -30 -55 -60 -82 -11 -9 -18 -30 -18 -49 0 -18 -7 -55
-16 -82 -13 -39 -23 -52 -52 -66 -43 -20 -50 -27 -78 -80 -15 -27 -29 -39 -45
-40 -50 -3 -75 -21 -89 -63 -7 -23 -19 -41 -27 -41 -7 0 -13 -4 -13 -10 0 -5
-6 -10 -14 -10 -8 0 -16 -4 -18 -9 -1 -5 -22 -11 -46 -15 -47 -6 -91 -26 -91
-41 -1 -5 -4 -10 -8 -10 -5 -1 -17 -6 -28 -12 -16 -9 -25 -8 -40 3 -25 18 -79
18 -95 -1 -7 -8 -27 -15 -46 -15 -18 0 -36 -4 -39 -10 -3 -5 -14 -10 -23 -10
-9 0 -30 -7 -46 -15 -15 -8 -39 -15 -52 -15 -12 0 -25 -4 -29 -9 -3 -5 -28
-17 -55 -26 -30 -10 -50 -22 -50 -32 0 -23 -70 -10 -92 17 -16 20 -21 21 -48
10 -17 -7 -30 -16 -30 -20 0 -15 -54 6 -64 26 -16 28 -28 34 -56 28 -14 -3
-52 -7 -85 -8 -58 -3 -90 7 -79 25 3 5 -15 9 -39 9 -37 0 -46 4 -55 25 -15 32
-50 40 -87 21 -33 -17 -75 -21 -75 -7 0 5 -15 15 -32 22 -18 7 -46 26 -62 41
-16 15 -35 28 -42 28 -8 0 -14 5 -14 10 0 6 -9 10 -20 10 -11 0 -20 5 -20 11
0 5 -4 7 -10 4 -5 -3 -10 -2 -10 2 0 19 -50 60 -91 73 -24 8 -53 25 -63 38
-16 20 -26 23 -63 19 -32 -3 -49 1 -64 14 -11 10 -27 15 -34 13 -7 -3 -16 -1
-20 5 -3 6 -17 11 -30 11 -13 0 -27 5 -30 11 -4 5 -18 14 -31 19 -19 8 -23 15
-19 32 3 13 0 31 -7 40 -22 28 -190 148 -217 155 -14 3 -43 23 -63 44 -21 22
-41 39 -45 39 -5 0 -24 11 -43 23 -26 18 -47 23 -83 22 -35 -2 -64 5 -108 26
-34 16 -66 29 -73 29 -7 0 -21 9 -31 20 -9 10 -33 24 -51 30 -19 7 -34 15 -34
20 0 4 -13 13 -30 19 -16 5 -30 17 -30 25 0 16 -23 32 -55 37 -26 5 -35 18
-35 52 0 52 -49 130 -97 155 -12 7 -37 12 -55 12 l-34 0 2 53 c1 28 5 62 9 74
6 18 1 26 -29 44 -38 22 -44 37 -24 57 12 12 21 122 12 153 -3 9 -17 19 -33
22 -30 6 -42 36 -41 101 1 43 -9 66 -29 66 -22 0 -40 20 -75 84 -24 44 -25 51
-11 66 8 9 15 22 15 28 0 7 5 12 10 12 6 0 9 12 8 28 -5 77 2 111 29 137 16
14 43 30 62 36 35 12 71 42 71 59 0 6 5 10 11 10 6 0 24 9 40 21 16 11 35 19
42 16 7 -3 23 4 36 14 13 11 19 19 15 19 -5 0 1 7 12 15 25 17 113 14 168 -6
35 -13 39 -12 54 8 9 12 29 27 45 32 35 13 46 40 23 53 -16 9 -13 15 28 55 42
40 49 44 79 37 41 -9 83 -9 124 0 18 4 34 3 37 -3 6 -8 19 -8 61 3 6 1 33 13
60 26 42 19 130 45 170 49 6 1 20 -5 31 -13z m-1427 -1010 c19 -1 40 -10 50
-21 9 -11 30 -22 46 -24 43 -5 48 -10 31 -36 -10 -16 -14 -35 -10 -54 7 -33
-10 -43 -33 -20 -8 8 -16 5 -29 -9 -26 -26 -52 -34 -75 -22 -11 7 -19 7 -19 1
0 -5 -13 -12 -30 -16 -25 -6 -29 -10 -24 -29 7 -31 -8 -35 -84 -25 l-63 9 -31
-36 c-31 -35 -34 -36 -80 -31 -39 5 -52 3 -68 -13 -10 -10 -16 -21 -12 -24 8
-9 -30 -35 -51 -36 -10 0 -29 -11 -41 -24 -34 -33 -51 -37 -92 -20 -33 14 -38
14 -55 -2 -10 -9 -19 -23 -19 -30 0 -27 -90 -49 -104 -25 -15 24 -47 17 -87
-20 -34 -31 -50 -39 -80 -39 -21 0 -41 5 -44 10 -3 6 -22 10 -40 10 -24 0 -38
6 -45 20 -11 20 -44 27 -54 12 -3 -5 4 -18 14 -30 25 -26 25 -29 0 -42 -15 -8
-23 -6 -42 14 -18 19 -30 23 -55 19 -18 -3 -33 -11 -33 -18 0 -8 -13 -12 -36
-11 -27 1 -39 -4 -48 -19 -15 -27 -27 -35 -51 -31 -11 2 -26 -1 -33 -7 -10 -8
-16 -7 -23 5 -6 10 -21 16 -39 16 -19 -1 -36 7 -48 22 -23 28 -62 20 -62 -13
0 -35 -12 -44 -57 -44 -33 0 -47 -6 -62 -24 l-19 -23 -40 28 c-38 26 -52 49
-52 89 0 15 7 17 55 13 53 -4 55 -4 55 20 0 19 5 24 25 24 18 0 25 5 25 20 0
27 44 43 92 36 32 -5 40 -3 53 18 9 14 30 29 46 35 16 5 29 14 29 18 0 23 50
37 135 38 84 1 90 2 105 26 8 14 20 24 27 22 6 -2 14 5 17 15 8 24 27 29 86
25 25 -2 56 -4 69 -4 25 -1 91 31 91 44 0 4 4 6 8 3 5 -3 19 1 33 8 43 22 88
35 94 26 7 -11 29 -7 48 8 8 7 25 11 38 9 23 -4 59 24 59 44 0 5 15 12 33 17
24 7 36 5 50 -7 27 -23 103 -21 151 4 33 17 48 20 81 13 46 -10 97 6 88 28 -3
8 5 15 24 19 15 3 43 10 60 16 18 6 37 7 43 4 9 -6 14 8 11 28 -1 5 13 5 31 2
18 -3 48 -7 67 -9z m431 -745 c7 -11 17 -18 22 -15 4 3 23 2 43 -2 45 -8 61
-41 59 -116 -1 -54 -18 -88 -42 -88 -6 0 -12 -3 -14 -7 -1 -5 -20 -16 -40 -25
-29 -13 -38 -24 -38 -42 0 -14 -10 -30 -25 -40 -14 -10 -30 -29 -36 -43 -7
-18 -14 -23 -27 -18 -20 8 -20 8 -53 6 -20 -1 -29 -8 -33 -27 -5 -18 -12 -24
-22 -20 -9 3 -24 6 -35 6 -10 0 -19 6 -19 14 0 14 -24 29 -33 20 -3 -3 0 -21
6 -40 10 -33 3 -59 -11 -37 -11 17 -52 -3 -52 -27 0 -11 7 -20 15 -20 16 0 19
-9 10 -32 -4 -9 -19 -12 -50 -10 -34 3 -46 0 -51 -12 -3 -9 -16 -16 -27 -16
-11 0 -37 -18 -58 -40 -20 -21 -49 -41 -64 -44 -37 -7 -40 -10 -44 -50 0 -8
-13 -18 -28 -23 -31 -10 -40 -10 -67 2 -15 6 -25 1 -45 -24 -24 -30 -28 -31
-59 -20 -25 8 -36 8 -47 -1 -8 -7 -14 -15 -13 -18 2 -22 -7 -33 -49 -53 -29
-14 -62 -22 -85 -20 -26 2 -42 -3 -57 -18 -13 -13 -34 -21 -55 -21 -19 0 -50
-9 -68 -19 -18 -11 -45 -19 -61 -19 -15 0 -45 -12 -67 -27 -27 -19 -48 -26
-66 -22 -34 6 -106 -12 -121 -31 -7 -9 -13 -26 -13 -39 0 -21 -5 -23 -46 -23
-41 0 -47 -3 -57 -29 -13 -34 -46 -53 -69 -40 -19 10 -71 -6 -110 -34 -14 -11
-40 -21 -58 -23 -17 -2 -37 -7 -43 -11 -6 -4 -33 -5 -60 -4 -28 1 -54 -3 -63
-10 -11 -9 -20 -10 -32 -2 -12 7 -33 6 -71 -4 -56 -14 -81 -28 -81 -46 0 -17
-33 -36 -62 -37 -16 0 -28 5 -28 10 0 6 -12 10 -26 10 -24 0 -26 3 -21 29 7
35 -9 45 -60 35 -24 -5 -46 -1 -74 12 -44 22 -44 22 -24 71 11 25 19 33 28 26
19 -14 64 -15 72 -2 5 6 9 21 10 33 4 34 5 36 13 34 4 -1 19 4 34 12 16 7 34
9 45 5 35 -15 64 -12 74 8 8 14 18 18 39 13 19 -3 30 -1 33 8 5 14 18 18 99
31 35 5 37 8 31 35 -5 29 -4 30 30 30 20 0 39 5 42 10 3 6 17 10 30 10 13 0
27 -4 30 -10 3 -5 20 -10 37 -10 22 0 29 4 25 14 -4 9 9 30 31 50 36 36 62 46
62 25 0 -5 4 -7 10 -4 5 3 10 0 10 -8 0 -20 36 -28 68 -16 14 5 32 7 39 5 24
-9 53 16 47 40 -6 22 -4 23 84 38 13 3 29 10 37 16 8 6 22 11 32 10 52 -6 74
2 105 36 28 31 38 35 65 31 39 -7 43 7 11 33 l-23 19 37 15 c21 9 42 16 47 16
6 0 13 11 17 25 4 16 13 25 25 25 11 0 30 7 43 15 22 15 27 14 56 -4 31 -19
38 -19 78 -4 9 3 24 7 32 7 8 1 20 13 27 27 19 40 47 60 87 62 24 1 37 7 38
17 0 8 2 21 2 27 2 18 73 55 81 43 10 -17 29 -11 75 22 24 18 55 32 69 33 18
0 26 6 26 17 0 10 7 24 15 32 15 14 103 48 170 67 37 10 51 16 114 43 35 15
38 19 32 47 -7 37 24 89 52 84 9 -1 29 4 45 12 15 7 27 10 28 6 0 -5 4 2 9 15
11 27 31 28 50 3z"/>
<path d="M4825 5300 c-11 -4 -32 -5 -48 -3 -17 4 -34 0 -45 -10 -12 -10 -46
-16 -109 -19 -80 -4 -95 -2 -112 13 -18 17 -22 17 -56 3 -23 -9 -49 -12 -71
-8 -23 4 -42 1 -59 -10 -13 -9 -31 -13 -39 -10 -8 3 -23 -3 -33 -15 -9 -12
-27 -21 -38 -21 -11 0 -30 -11 -42 -24 -14 -14 -40 -26 -66 -30 -36 -6 -49
-15 -85 -59 -23 -28 -42 -59 -42 -67 0 -9 -10 -16 -22 -17 -25 -2 -42 -26 -47
-63 0 -5 -8 -10 -16 -10 -8 0 -15 -4 -15 -9 0 -5 -9 -12 -19 -16 -25 -8 -35
-38 -22 -64 8 -14 6 -25 -9 -44 -15 -19 -18 -31 -12 -49 5 -12 7 -44 5 -70 -4
-49 -6 -45 61 -107 16 -14 26 -34 26 -51 0 -28 22 -60 41 -60 6 0 21 -12 36
-26 14 -14 35 -29 48 -34 13 -5 26 -21 30 -37 7 -28 25 -49 59 -68 10 -6 26
-28 34 -50 9 -22 21 -44 27 -50 17 -16 75 -47 75 -40 0 10 23 -16 50 -58 23
-35 66 -57 95 -48 27 9 42 6 70 -11 16 -10 48 -18 71 -18 33 0 48 -7 77 -35
35 -34 38 -35 94 -29 32 3 63 7 70 9 6 2 14 1 17 -3 9 -8 28 -11 126 -18 47
-3 89 -10 94 -15 6 -5 25 -9 43 -9 19 0 56 -11 83 -25 35 -18 66 -25 104 -25
49 0 55 2 58 23 2 14 10 23 23 23 11 1 31 6 44 11 18 7 32 6 50 -4 37 -19 56
-16 70 10 11 21 18 23 56 19 l44 -4 11 41 c9 35 18 45 60 66 27 14 61 25 74
25 18 0 30 9 40 29 9 16 30 34 48 40 57 22 63 27 66 66 4 42 34 81 53 70 7 -5
10 -4 5 3 -3 6 1 17 9 25 19 20 19 61 0 77 -14 12 -14 15 0 30 20 22 19 36 -4
52 -21 15 -51 79 -51 109 0 10 -9 24 -21 31 -11 7 -28 29 -38 48 -24 49 -43
80 -65 106 -10 12 -18 26 -19 31 0 4 -7 14 -14 22 -8 7 -12 18 -10 25 2 6 -14
30 -37 53 -23 23 -47 49 -54 57 -7 9 -26 16 -42 16 -21 0 -30 5 -32 18 0 9 -2
22 -3 27 -2 6 -3 13 -4 17 0 4 -14 3 -30 -2 -23 -6 -33 -4 -46 11 -10 10 -20
18 -24 17 -6 -1 -56 7 -108 18 -13 2 -23 9 -23 15 0 19 -44 48 -73 49 -35 0
-67 16 -67 33 0 33 -116 92 -162 83 -105 -20 -125 -19 -155 8 -30 28 -29 28
-58 16z m-360 -320 c-3 -5 1 -11 9 -11 33 -3 37 -4 46 -19 15 -24 12 -36 -13
-47 -19 -9 -23 -17 -19 -42 2 -18 10 -31 18 -31 16 0 19 -21 4 -36 -5 -5 -6
-24 0 -48 5 -22 6 -45 2 -50 -22 -37 -5 -130 27 -141 9 -3 31 -19 50 -37 18
-17 42 -32 52 -33 22 -2 49 -23 49 -40 0 -7 10 -19 23 -28 12 -8 31 -23 42
-33 26 -25 78 -31 159 -20 32 5 55 14 63 26 8 11 24 18 42 18 17 -1 37 8 50
21 15 15 28 20 39 15 34 -14 62 -16 62 -5 0 6 7 11 15 11 8 0 15 5 15 10 0 6
6 10 13 9 21 -3 42 1 56 10 12 8 12 13 -3 36 -17 26 -17 27 9 51 26 24 27 26
9 45 -15 17 -16 24 -6 39 7 11 12 25 12 31 0 6 10 19 23 30 16 14 17 17 5 13
-21 -7 -22 -3 -6 31 6 14 18 25 27 23 9 -1 21 1 28 5 14 9 55 -6 72 -27 7 -9
19 -16 25 -16 14 0 46 -36 46 -50 0 -6 7 -13 15 -16 8 -4 15 -11 15 -18 0 -6
10 -27 22 -46 12 -19 23 -41 24 -48 1 -8 10 -22 20 -33 9 -10 14 -19 11 -19
-3 0 -2 -14 3 -31 13 -43 -30 -129 -60 -122 -3 1 -19 -7 -36 -18 -17 -10 -41
-19 -52 -19 -12 0 -26 -6 -31 -12 -6 -7 -23 -28 -37 -46 -15 -18 -29 -30 -32
-27 -3 3 -16 -2 -28 -10 -26 -17 -132 -26 -141 -12 -3 5 -22 6 -42 3 -20 -4
-54 -9 -76 -12 -22 -3 -41 -7 -43 -9 -2 -2 -18 1 -35 5 -40 11 -108 21 -167
25 -62 4 -124 16 -130 25 -3 4 -20 6 -39 5 -24 -1 -40 5 -58 23 -18 18 -39 27
-74 30 -55 5 -60 9 -65 60 -3 36 -20 61 -45 66 -30 6 -49 19 -49 33 0 8 -4 12
-9 9 -5 -3 -14 1 -21 9 -7 8 -19 15 -26 15 -8 0 -15 5 -15 10 -5 39 -20 59
-50 65 -29 7 -30 8 -15 31 21 30 21 74 1 74 -8 0 -15 7 -15 15 0 9 -7 18 -15
21 -12 5 -12 9 -1 27 7 12 19 43 27 69 9 34 19 48 35 52 13 4 26 15 29 26 3
11 11 20 16 20 6 0 8 8 4 19 -4 14 4 22 40 36 25 9 55 15 66 12 10 -3 19 -1
19 4 0 5 5 9 11 9 5 0 7 -4 4 -10z"/>
<path d="M2167 4894 c-10 -11 3 -24 24 -24 10 0 19 7 19 15 0 15 -31 21 -43 9z"/>
<path d="M4460 9035 c0 -18 4 -23 15 -19 8 4 15 15 15 25 0 10 -7 19 -15 19
-9 0 -15 -9 -15 -25z"/>
<path d="M4320 8896 c0 -9 5 -16 10 -16 6 0 10 4 10 9 0 6 -4 13 -10 16 -5 3
-10 -1 -10 -9z"/>
<path d="M5550 8684 c-9 -10 -10 -18 -2 -26 12 -12 32 -2 32 17 0 21 -16 26
-30 9z"/>
<path d="M7560 7495 c0 -9 5 -15 11 -13 6 2 11 8 11 13 0 5 -5 11 -11 13 -6 2
-11 -4 -11 -13z"/>
<path d="M7500 7434 c0 -9 5 -14 12 -12 18 6 21 28 4 28 -9 0 -16 -7 -16 -16z"/>
<path d="M8473 6733 c-18 -6 -16 -33 1 -33 19 0 31 19 20 30 -5 4 -15 5 -21 3z"/>
<path d="M8740 6191 c0 -5 6 -14 14 -20 10 -8 16 -8 25 2 6 8 8 17 4 20 -9 10
-43 8 -43 -2z"/>
<path d="M45 4581 c-6 -10 11 -24 33 -27 15 -3 16 8 0 24 -14 14 -25 15 -33 3z"/>
<path d="M480 3070 c0 -5 9 -10 20 -10 11 0 20 5 20 10 0 6 -9 10 -20 10 -11
0 -20 -4 -20 -10z"/>
<path d="M2460 910 c-12 -8 -12 -10 2 -15 19 -7 38 1 38 16 0 12 -21 11 -40
-1z"/>
<path d="M2715 780 c-8 -13 -1 -24 14 -19 6 3 7 10 2 18 -6 10 -10 10 -16 1z"/>
<path d="M7036 734 c-9 -23 -8 -24 13 -24 25 0 38 20 20 31 -20 12 -26 11 -33
-7z"/>
<path d="M7245 700 c-3 -5 -1 -10 4 -10 6 0 11 5 11 10 0 6 -2 10 -4 10 -3 0
-8 -4 -11 -10z"/>
<path d="M4226 425 c-22 -22 -20 -35 4 -35 23 0 38 26 23 41 -7 7 -16 5 -27
-6z"/>
<path d="M3360 230 c0 -5 7 -10 15 -10 8 0 15 5 15 10 0 6 -7 10 -15 10 -8 0
-15 -4 -15 -10z"/>
</g>
</svg>
